<svg width="400" height="400" fill="none" xmlns="http://www.w3.org/2000/svg"><path fill="#fff" d="M0 0h400v400H0z"/><g clip-path="url(#clip0_2_14)"><path d="M130 129H37v26.525h31.926V270h29.148V155.525H130V129zm17 26h26v-26h-26v26zm0 115h26V169h-26v101zm161-106c-30.376 0-55 23.729-55 53 0 29.272 24.624 53 55 53s55-23.728 55-53c.001-29.271-24.624-53-55-53zm-29.711 53c0-16.565 13.936-29.994 31.126-29.994S340.54 200.435 340.54 217c0 1.306-.096 2.589-.263 3.851-2.564-19.04-20.918-21.149-26.795-21.149-6.322 0-8.312.852-11.849 2.983v20.45s3.096-2.045 7.251-2.045c4.157 0 12.733 2.301 12.733 12.186 0 9.859-6.941 13.683-13.584 13.683-15.771-.001-29.744-13.842-29.744-29.959zM244 189.018v-22.332h-19.463V129h-25.025v37.686H187v22.332h12.512v58.623c0 .932-.003 23.234 43.098 22.332v-22.332s-18.073 1.265-18.073-9.77v-48.853H244z" fill="#0079FF"/></g><defs><clipPath id="clip0_2_14"><path fill="#fff" transform="translate(37 129)" d="M0 0h326v141H0z"/></clipPath></defs></svg>