<svg id="Layer_1" data-name="Layer 1" xmlns="http://www.w3.org/2000/svg" viewBox="0 0 468 455"><defs><style>.cls-1{fill:#a6a8ab;}.cls-2{fill:#3094b5;}.cls-3{fill:#929497;}.cls-4{fill:#bbbdbf;}.cls-24,.cls-5{fill:#fff;}.cls-6{fill:#d0d2d3;}.cls-7{fill:#d21f41;}.cls-8{fill:#e9bf3b;}.cls-9{fill:#89c543;}.cls-10{fill:#231f20;}.cls-11{fill:#00a2e0;}.cls-12{fill:#7fd54f;}.cls-13{fill:#fc333e;}.cls-14{fill:#ffe200;}.cls-15{fill:#30312e;}.cls-16{fill:#3e9a44;}.cls-17{fill:#9a926a;}.cls-18{fill:#e4d46b;}.cls-19{fill:#00672e;}.cls-20{fill:#dbddda;}.cls-21{fill:#fef8fc;}.cls-22{fill:#d5dcdc;}.cls-23{fill:#3d3f38;}.cls-24{font-size:36px;font-family:Gotham-Black, Gotham Black;font-weight:800;}</style></defs><polygon class="cls-1" points="317.66 305.1 328.07 320.61 280.57 323.39 277.3 309.03 317.66 305.1"/><path class="cls-1" d="M280.57,323.4h0L277.28,309h0l40.36-3.93h0l10.41,15.51v0h0l-47.5,2.77ZM277.32,309l3.26,14.33L328,320.6l-10.39-15.48Z"/><polygon class="cls-2" points="287.61 310.75 308.95 309 313.14 316.06 290.69 317.64 287.61 310.75"/><path class="cls-1" d="M290.69,317.65h0l-3.08-6.89h0L309,309h0l4.19,7.07h0l-22.45,1.57Zm-3.06-6.89,3.07,6.86,22.42-1.57L309,309Z"/><path class="cls-1" d="M142.55,311.68l-5.62,14.87,47.13,2L185.54,313Z"/><path class="cls-1" d="M184.06,328.52h0l-47.13-1.95h0l5.63-14.88h0l43,1.27h0l-1.48,15.56Zm-47.11-2,47.1,1.95L185.53,313l-43-1.27Z"/><path class="cls-3" d="M183.59,320.13l3.71-8.21,91-.61c.49,2.4,1,4.79,1.48,7.19Z"/><path class="cls-1" d="M183.59,320.14h0l3.72-8.21h0l91-.61h0l0,0,1.47,7.19h0l-96.21,1.62Zm3.72-8.2-3.7,8.17,48.49-.82,47.68-.8-1.47-7.17Z"/><polygon class="cls-4" points="281.73 206.44 173.38 209.79 179.15 311.87 281.17 310.08 281.73 206.44"/><path class="cls-1" d="M179.15,311.89l0,0-5.77-102.08h0l108.36-3.36h0v0l-.56,103.64,0,0-102,1.79Zm-5.76-102.08,5.77,102.05,102-1.79.56-103.62Z"/><polygon class="cls-1" points="268.57 220.19 187.14 222.29 190.62 300.08 268.72 298.6 268.57 220.19"/><path class="cls-1" d="M190.62,300.1a0,0,0,0,1,0,0l-3.48-77.8h0l81.43-2.1h0l.16,78.41,0,0-78.1,1.48Zm-3.46-77.79,3.48,77.76,78.06-1.48-.15-78.38Z"/><polygon class="cls-3" points="255.06 234.61 254.95 286.1 203.44 286.99 201.56 235.46 255.06 234.61"/><path class="cls-1" d="M203.44,287h0l-1.88-51.53h0l53.5-.86h0L255,286.1l0,0-51.5.88Zm-1.86-51.52L203.46,287l51.48-.88.11-51.47Z"/><path class="cls-5" d="M254.8,274.47l-12.63.14-.35-39.74,13.24-.26Z"/><polygon class="cls-6" points="271.21 202.98 184.72 204.38 173.38 209.79 281.73 206.44 271.21 202.98"/><path class="cls-1" d="M173.37,209.81h0s0,0,0,0l11.35-5.42h0L271.21,203h0l10.53,3.45v0h0l-108.35,3.36Zm11.36-5.42-11.28,5.38,108.19-3.35L271.21,203Z"/><polygon class="cls-2" points="151.9 314.9 149.87 322.51 173.19 323.4 174.12 315.78 151.9 314.9"/><path class="cls-1" d="M173.19,323.42h0l-23.32-.9h0s0,0,0,0l2-7.61h0l22.22.88h0l-.94,7.63Zm-23.3-.93,23.29.9.93-7.6-22.2-.88Z"/><polygon class="cls-4" points="183.59 320.13 279.8 318.5 276.61 377.01 185.06 375.63 183.59 320.13"/><path class="cls-1" d="M276.61,377h0l-91.55-1.37,0,0-1.47-55.5h0l96.2-1.63h0L276.63,377Zm-91.54-1.4L276.6,377l3.18-58.47-96.18,1.62Z"/><path class="cls-6" d="M195.69,320l.63,55.61,70.13,1.33L268,318.77Z"/><path class="cls-1" d="M266.45,376.9h0l-70.13-1.32,0,0L195.67,320h0L268,318.76h0l-1.55,58.12Zm-70.12-1.35,70.11,1.32L268,318.79,195.7,320Z"/><polygon class="cls-4" points="136.93 326.55 136.19 374.92 182.51 375.61 184.06 328.51 136.93 326.55"/><path class="cls-1" d="M182.52,375.63h0l-46.33-.7h0l.74-48.37h0l47.13,1.95,0,0-1.55,47.1Zm-46.32-.73,46.3.7,1.55-47.08-47.11-1.95Z"/><polygon class="cls-3" points="277.97 376.78 282.88 377.22 280.57 323.39 277.3 309.03 277.97 376.78"/><path class="cls-1" d="M282.88,377.24h0L278,376.8s0,0,0,0L277.28,309l0,0v0l3.28,14.35,2.3,53.84h0Zm-4.89-.47,4.87.44-2.3-53.82-3.24-14.22Z"/><polygon class="cls-4" points="328.56 377.36 328.07 320.61 280.57 323.39 282.88 377.22 328.56 377.36"/><path class="cls-1" d="M328.56,377.38h0l-45.68-.14,0,0-2.3-53.83s0,0,0,0l47.5-2.78h0l.49,56.75h0Zm-45.67-.17,45.66.14-.49-56.72-47.47,2.77Z"/><rect class="cls-7" x="207.3" y="333.55" width="12.74" height="31.6" transform="translate(3.77 -2.28) rotate(0.62)"/><rect class="cls-8" x="219.94" y="333.65" width="12.74" height="31.6" transform="translate(3.77 -2.41) rotate(0.62)"/><rect class="cls-9" x="232.71" y="333.79" width="12.74" height="31.6" transform="translate(3.77 -2.55) rotate(0.62)"/><rect class="cls-2" x="245.26" y="333.92" width="12.74" height="31.6" transform="translate(3.77 -2.68) rotate(0.62)"/><path class="cls-10" d="M255,250.88H241.82V237.5h13.3Q255,244.19,255,250.88Z"/><path class="cls-5" d="M202.9,275.31l12.62-.37-1.26-39.72-13.23.26Z"/><path class="cls-10" d="M201.84,252.66l13.11-.53-.58-14.29-13.28.53Z"/><path class="cls-11" d="M254.5,391.41l-4.89-30.34a116.92,116.92,0,0,0,38.87-13.65,114.44,114.44,0,0,0,33.84-29.24A115.58,115.58,0,0,0,346.38,257a114.2,114.2,0,0,0-.3-22.64,116.49,116.49,0,0,0-11.49-38.81l27.51-13.71a147.28,147.28,0,0,1,14.52,49.07,144.42,144.42,0,0,1,.38,28.73,145.89,145.89,0,0,1-5.13,27.77,147,147,0,0,1-25.32,49.7,145.62,145.62,0,0,1-42.9,37.07,147.56,147.56,0,0,1-49.15,17.25Z"/><path class="cls-12" d="M334.59,195.53a114.1,114.1,0,0,0-24.51-32.77,116.4,116.4,0,0,0-15.9-12.4,118,118,0,0,0-17.77-9.42,114.77,114.77,0,0,0-80.65-3.48,116.56,116.56,0,0,0-11.5,4.42l-12.52-28.07A146.26,146.26,0,0,1,331,140.25a144.81,144.81,0,0,1,31.08,41.57Z"/><path class="cls-13" d="M109.88,328.24a146.12,146.12,0,0,1,61.86-214.43l12.52,28.07A115,115,0,0,0,126.15,200a115.47,115.47,0,0,0-9.9,40.23,116,116,0,0,0,19.2,70.95Z"/><path class="cls-14" d="M231.4,393.27A144.77,144.77,0,0,1,212.35,392a146.26,146.26,0,0,1-102.47-63.77l25.57-17.05a114.31,114.31,0,0,0,22,24.45,115.5,115.5,0,0,0,92.19,25.43l4.89,30.34A144.42,144.42,0,0,1,231.4,393.27Z"/><path class="cls-15" d="M231.39,439.38a193.12,193.12,0,0,1-38.59-3.89,191,191,0,0,1-68.58-28.85,192,192,0,0,1-69.4-84.3,190.38,190.38,0,0,1-11.18-36,193.41,193.41,0,0,1,0-77.19,190.82,190.82,0,0,1,28.85-68.57,192,192,0,0,1,84.3-69.41A190.38,190.38,0,0,1,192.8,60,193.41,193.41,0,0,1,270,60a190.82,190.82,0,0,1,68.57,28.85,192.57,192.57,0,0,1,51.74,51.74A191.56,191.56,0,0,1,231.39,439.38Zm0-334.11a143.59,143.59,0,0,0-28.73,2.89,141.79,141.79,0,0,0-50.9,21.43,142.88,142.88,0,0,0-51.65,62.7A141.74,141.74,0,0,0,91.82,219a144.3,144.3,0,0,0,0,57.47,141.54,141.54,0,0,0,21.42,50.9,143.09,143.09,0,0,0,38.52,38.52,142.61,142.61,0,0,0,210.91-62.71,140.82,140.82,0,0,0,8.3-26.71A144.3,144.3,0,0,0,371,219a141.79,141.79,0,0,0-21.43-50.9A143.4,143.4,0,0,0,311,129.59a141.79,141.79,0,0,0-50.9-21.43A143.69,143.69,0,0,0,231.39,105.27Z"/><path class="cls-16" d="M406.55,99.44a3.18,3.18,0,0,1-3.9,2.24l-.19-.05a3.2,3.2,0,0,1-2.25-3.9l2.16-8-7.93-2.13-2.16,8.06a3.19,3.19,0,0,1-3.9,2.24l-.19,0a3.19,3.19,0,0,1-2.25-3.9l2.16-8.05-7.93-2.13-2.17,8A3.2,3.2,0,0,1,374.1,94l-.19,0a3.2,3.2,0,0,1-2.25-3.9l2.17-8-7.94-2.13-2.16,8a3.2,3.2,0,0,1-3.9,2.25l-.19-.06a3.2,3.2,0,0,1-2.25-3.9l2.17-8-7.94-2.13-2.16,8a3.19,3.19,0,0,1-3.9,2.25l-.19,0a3.19,3.19,0,0,1-2.25-3.9l2.16-8.05-7.93-2.13-2.17,8a3.2,3.2,0,0,1-3.9,2.25l-.19,0a3.2,3.2,0,0,1-2.25-3.9L331,70.51l-7.94-2.13-2.16,8.05a3.19,3.19,0,0,1-3.9,2.25l-.19-.05a3.2,3.2,0,0,1-2.25-3.9l2.17-8-7.94-2.13-2.16,8a3.2,3.2,0,0,1-3.9,2.25l-.19,0a3.2,3.2,0,0,1-2.25-3.9l2.16-8.05-7.93-2.14-2.16,8.06a3.19,3.19,0,0,1-3.9,2.24l-.19-.05a3.19,3.19,0,0,1-2.25-3.9L288.19,59l-7.93-2.13-2.17,8.05a3.2,3.2,0,0,1-3.9,2.25l-.19-.05a3.18,3.18,0,0,1-2.24-3.9l2.16-8L266,53.05l-2.17,8.05a3.2,3.2,0,0,1-3.9,2.25l-.19-.05a3.2,3.2,0,0,1-2.25-3.9l2.17-8.06-7.94-2.13-2.16,8a3.19,3.19,0,0,1-3.9,2.25l-.19,0a3.2,3.2,0,0,1-2.25-3.9l2.16-8.05-7.93-2.13-2.16,8a3.2,3.2,0,0,1-3.9,2.25l-.19,0a3.19,3.19,0,0,1-2.25-3.9l2.16-8.06-7.93-2.13L221,49.6a3.2,3.2,0,0,1-3.91,2.24l-.19-.05a3.18,3.18,0,0,1-2.24-3.9l2.16-8-7.93-2.13-2.17,8a3.2,3.2,0,0,1-3.9,2.25l-.19,0a3.2,3.2,0,0,1-2.25-3.9L202.56,36l-7.94-2.13-2.16,8a3.2,3.2,0,0,1-3.9,2.25l-.19,0a3.2,3.2,0,0,1-2.25-3.9l2.16-8.06L180.35,30l-2.16,8.05a3.19,3.19,0,0,1-3.9,2.25l-.19-.05a3.19,3.19,0,0,1-2.25-3.9l2.16-8-7.93-2.13-2.17,8a3.2,3.2,0,0,1-3.9,2.25l-.19,0a3.2,3.2,0,0,1-2.25-3.9l2.17-8.06-7.94-2.13-2.16,8.05a3.18,3.18,0,0,1-3.9,2.25l-.19-.05a3.2,3.2,0,0,1-2.25-3.9l2.16-8-7.93-2.13-2.16,8.05a3.2,3.2,0,0,1-3.9,2.25l-.19-.05a3.19,3.19,0,0,1-2.25-3.9l2.16-8-.37-.1A4.64,4.64,0,0,0,125.14,20L95.78,129.3a4.64,4.64,0,0,0,3.07,5.61l2.34-8.72a3.2,3.2,0,0,1,3.9-2.25l.19,0a3.2,3.2,0,0,1,2.25,3.9l-2.35,8.74,7.94,2.13,2.34-8.74a3.2,3.2,0,0,1,3.9-2.25l.19.06a3.19,3.19,0,0,1,2.25,3.9l-2.34,8.73,7.93,2.13,2.35-8.73a3.19,3.19,0,0,1,3.9-2.25l.19,0a3.18,3.18,0,0,1,2.24,3.9l-2.34,8.74,7.93,2.13,2.35-8.74a3.2,3.2,0,0,1,3.9-2.25l.19.05a3.2,3.2,0,0,1,2.25,3.9L148,148.13l7.93,2.13,2.35-8.73a3.19,3.19,0,0,1,3.9-2.25l.19.05a3.2,3.2,0,0,1,2.25,3.9L162.27,152l7.94,2.13,2.34-8.73a3.2,3.2,0,0,1,3.9-2.25l.19,0a3.19,3.19,0,0,1,2.25,3.9l-2.34,8.74,7.93,2.13,2.34-8.74a3.2,3.2,0,0,1,3.91-2.24l.19.05a3.18,3.18,0,0,1,2.24,3.9l-2.34,8.73,7.93,2.13L201.1,153a3.2,3.2,0,0,1,3.9-2.25l.19.05a3.2,3.2,0,0,1,2.25,3.9l-2.35,8.74L213,165.6l2.35-8.74a3.2,3.2,0,0,1,3.9-2.25l.19,0a3.2,3.2,0,0,1,2.25,3.9l-2.35,8.74,7.94,2.13,2.34-8.73a3.19,3.19,0,0,1,3.9-2.25l.19.05a3.19,3.19,0,0,1,2.25,3.9l-2.35,8.73,7.94,2.13,2.34-8.73a3.2,3.2,0,0,1,3.9-2.25l.19.05a3.19,3.19,0,0,1,2.25,3.9L247.91,175l7.93,2.13,2.35-8.74a3.18,3.18,0,0,1,3.9-2.24l.19,0a3.2,3.2,0,0,1,2.25,3.9l-2.35,8.73,7.93,2.13,2.35-8.73a3.2,3.2,0,0,1,3.9-2.25l.19.05a3.2,3.2,0,0,1,2.25,3.9l-2.35,8.74,7.93,2.13,2.35-8.74a3.2,3.2,0,0,1,3.9-2.25l.19.05a3.21,3.21,0,0,1,2.25,3.91l-2.35,8.73,7.94,2.13,2.34-8.73a3.19,3.19,0,0,1,3.9-2.25l.19,0a3.19,3.19,0,0,1,2.25,3.9L305,190.3l7.93,2.13,2.35-8.73a3.2,3.2,0,0,1,3.9-2.25l.19.05a3.2,3.2,0,0,1,2.25,3.9l-2.35,8.74,7.93,2.13,2.35-8.74a3.18,3.18,0,0,1,3.9-2.24l.19.05a3.2,3.2,0,0,1,2.25,3.9L333.54,198l7.93,2.13,2.35-8.73a3.2,3.2,0,0,1,3.9-2.25l.19,0a3.2,3.2,0,0,1,2.25,3.9l-2.35,8.74,7.94,2.13,2.34-8.74A3.2,3.2,0,0,1,362,193l.19.05a3.2,3.2,0,0,1,2.25,3.91l-2.34,8.73,7.93,2.13,2.35-8.73a3.19,3.19,0,0,1,3.9-2.25l.19.05a3.18,3.18,0,0,1,2.24,3.9l-2.34,8.73.21.06a4.64,4.64,0,0,0,5.67-3.27l10-37-8.61-2.32a3.2,3.2,0,0,1-2.25-3.9l.05-.19a3.19,3.19,0,0,1,3.9-2.24l8.61,2.31,2.13-7.94-8.6-2.31a3.19,3.19,0,0,1-2.25-3.9l.05-.19a3.2,3.2,0,0,1,3.9-2.25l8.6,2.31,2.14-7.93-8.61-2.31a3.2,3.2,0,0,1-2.25-3.9l.05-.19A3.2,3.2,0,0,1,393,132l8.61,2.31,10-37.36a4.66,4.66,0,0,0-2.91-5.56l-2.16,8ZM106,107.77a7.53,7.53,0,1,1,5.32,9.23A7.55,7.55,0,0,1,106,107.77Zm278.37,74.38a7.53,7.53,0,1,1-5.32-9.22A7.53,7.53,0,0,1,384.33,182.15ZM401,118.64a7.53,7.53,0,1,1-5.32-9.23A7.53,7.53,0,0,1,401,118.64ZM137.74,47.52a7.53,7.53,0,1,1-5.32-9.22A7.53,7.53,0,0,1,137.74,47.52Z"/><path class="cls-17" d="M100.32,126.76l-2,7.46a4.23,4.23,0,0,0-.14,1.16l1.33.36a2.7,2.7,0,1,1,5.22,1.4l1.34.36a4.34,4.34,0,0,0,.46-1.08l2-7.46a4.25,4.25,0,0,0-3-5.2h0A4.26,4.26,0,0,0,100.32,126.76Zm6.72,1.8a2.7,2.7,0,1,1-1.91-3.31A2.7,2.7,0,0,1,107,128.56Z"/><path class="cls-17" d="M114.62,130.6l-2,7.46a4.23,4.23,0,0,0-.14,1.16l1.33.36A2.71,2.71,0,0,1,119,141l1.33.36a4,4,0,0,0,.46-1.08l2-7.46a4.25,4.25,0,0,0-3-5.2h0A4.26,4.26,0,0,0,114.62,130.6Zm6.72,1.8a2.7,2.7,0,1,1-1.91-3.31A2.7,2.7,0,0,1,121.34,132.4Z"/><path class="cls-17" d="M128.8,134.41l-1.1,4.1-.91,3.36a4.6,4.6,0,0,0-.14,1.16l1.34.36a2.7,2.7,0,0,1,5.22,1.4l1.33.36a4,4,0,0,0,.46-1.08l.91-3.36,1.1-4.1,1.1-4.1-4.1-1.1h0l-4.1-1.1-1.11,4.1Zm6.71,1.8a2.7,2.7,0,1,1-1.91-3.31A2.7,2.7,0,0,1,135.51,136.21Z"/><path class="cls-17" d="M143,138.23l-2,7.46a3.88,3.88,0,0,0-.14,1.16l1.33.36a2.7,2.7,0,0,1,5.22,1.4l1.34.36a4.67,4.67,0,0,0,.46-1.07l2-7.46a4.26,4.26,0,0,0-3-5.21h0A4.26,4.26,0,0,0,143,138.23Zm6.71,1.8a2.7,2.7,0,1,1-1.91-3.31A2.69,2.69,0,0,1,149.74,140Z"/><path class="cls-17" d="M157.33,142.07l-2,7.46a3.88,3.88,0,0,0-.14,1.16l1.33.36a2.7,2.7,0,1,1,5.22,1.41l1.33.35a4.29,4.29,0,0,0,.47-1.07l2-7.46a4.26,4.26,0,0,0-3-5.21h0A4.26,4.26,0,0,0,157.33,142.07Zm6.72,1.81a2.71,2.71,0,1,1-1.91-3.32A2.72,2.72,0,0,1,164.05,143.88Z"/><path class="cls-17" d="M171.77,146l-2,7.46a3.88,3.88,0,0,0-.14,1.16l1.33.36a2.7,2.7,0,0,1,5.22,1.4l1.33.36a3.93,3.93,0,0,0,.46-1.07l2-7.46a4.26,4.26,0,0,0-3-5.21h0A4.26,4.26,0,0,0,171.77,146Zm6.72,1.8a2.71,2.71,0,1,1-1.91-3.31A2.71,2.71,0,0,1,178.49,147.75Z"/><path class="cls-17" d="M186.07,149.79l-2,7.46a4.66,4.66,0,0,0-.14,1.16l1.34.36a2.7,2.7,0,1,1,5.22,1.41l1.33.35a3.93,3.93,0,0,0,.46-1.07l2-7.46a4.28,4.28,0,0,0-3-5.21h0A4.26,4.26,0,0,0,186.07,149.79Zm6.71,1.81a2.7,2.7,0,1,1-1.91-3.32A2.71,2.71,0,0,1,192.78,151.6Z"/><path class="cls-17" d="M200.05,153.55l-1.11,4.1L198,161a4.6,4.6,0,0,0-.14,1.16l1.34.36a2.7,2.7,0,0,1,5.22,1.4l1.33.36a4.34,4.34,0,0,0,.46-1.08l.9-3.36,1.1-4.1,1.11-4.1-4.11-1.1h0l-4.1-1.1-1.1,4.1Zm6.71,1.8a2.7,2.7,0,1,1-1.91-3.31A2.7,2.7,0,0,1,206.76,155.35Z"/><path class="cls-17" d="M214.23,157.36l-2,7.46a4.6,4.6,0,0,0-.14,1.16l1.34.36a2.7,2.7,0,0,1,5.22,1.4l1.33.36a4,4,0,0,0,.46-1.08l2-7.46a4.25,4.25,0,0,0-3-5.2h0A4.26,4.26,0,0,0,214.23,157.36Zm6.71,1.8a2.7,2.7,0,1,1-1.9-3.31A2.7,2.7,0,0,1,220.94,159.16Z"/><path class="cls-17" d="M228.53,161.2l-2,7.46a3.88,3.88,0,0,0-.14,1.16l1.33.36a2.7,2.7,0,0,1,5.22,1.4l1.33.36a4.36,4.36,0,0,0,.47-1.08l2-7.46a4.25,4.25,0,0,0-3-5.2h0A4.26,4.26,0,0,0,228.53,161.2Zm6.71,1.8a2.7,2.7,0,1,1-1.91-3.31A2.7,2.7,0,0,1,235.24,163Z"/><path class="cls-17" d="M243,165.08l-2,7.46a3.88,3.88,0,0,0-.14,1.16l1.33.36a2.7,2.7,0,0,1,5.22,1.4l1.33.36a4.36,4.36,0,0,0,.47-1.08l2-7.46a4.25,4.25,0,0,0-3-5.2h0A4.26,4.26,0,0,0,243,165.08Zm6.71,1.8a2.7,2.7,0,1,1-1.91-3.31A2.7,2.7,0,0,1,249.68,166.88Z"/><path class="cls-17" d="M257.27,168.92l-2,7.46a4.66,4.66,0,0,0-.14,1.16l1.34.36a2.7,2.7,0,0,1,5.22,1.4l1.33.36a4,4,0,0,0,.46-1.08l2-7.46a4.27,4.27,0,0,0-3-5.2h0A4.26,4.26,0,0,0,257.27,168.92Zm6.71,1.8a2.7,2.7,0,1,1-1.91-3.31A2.7,2.7,0,0,1,264,170.72Z"/><path class="cls-17" d="M271.24,172.67l-1.1,4.1-.9,3.36a4.26,4.26,0,0,0-.14,1.17l1.33.35a2.71,2.71,0,1,1,5.23,1.41l1.33.35a3.8,3.8,0,0,0,.46-1.07l.9-3.36,1.1-4.1,1.11-4.1-4.11-1.11h0l-4.1-1.1-1.1,4.1Zm6.72,1.81a2.7,2.7,0,1,1-1.91-3.32A2.71,2.71,0,0,1,278,174.48Z"/><path class="cls-17" d="M285.82,176.59l-2,7.46a3.88,3.88,0,0,0-.14,1.16l1.33.36a2.7,2.7,0,0,1,5.22,1.4l1.34.36a4.34,4.34,0,0,0,.46-1.08l2-7.46a4.25,4.25,0,0,0-3-5.2h0A4.26,4.26,0,0,0,285.82,176.59Zm6.71,1.8a2.7,2.7,0,1,1-1.9-3.31A2.7,2.7,0,0,1,292.53,178.39Z"/><path class="cls-17" d="M300.12,180.43l-2,7.46a3.88,3.88,0,0,0-.14,1.16l1.33.36a2.7,2.7,0,0,1,5.22,1.4l1.33.36a4.36,4.36,0,0,0,.47-1.08l2-7.45a4.26,4.26,0,0,0-3-5.21h0A4.26,4.26,0,0,0,300.12,180.43Zm6.71,1.8a2.7,2.7,0,1,1-1.91-3.31A2.69,2.69,0,0,1,306.83,182.23Z"/><path class="cls-17" d="M314.56,184.31l-2,7.46a3.88,3.88,0,0,0-.14,1.16l1.33.36a2.7,2.7,0,0,1,5.22,1.4l1.33.36a4.36,4.36,0,0,0,.47-1.08l2-7.46a4.25,4.25,0,0,0-3-5.2h0A4.26,4.26,0,0,0,314.56,184.31Zm6.71,1.8a2.7,2.7,0,1,1-1.91-3.31A2.7,2.7,0,0,1,321.27,186.11Z"/><path class="cls-17" d="M328.86,188.15l-2,7.46a4.66,4.66,0,0,0-.14,1.16l1.34.36a2.7,2.7,0,0,1,5.22,1.4l1.33.36a4,4,0,0,0,.46-1.08l2-7.45a4.27,4.27,0,0,0-3-5.21h0A4.26,4.26,0,0,0,328.86,188.15Zm6.71,1.8a2.7,2.7,0,1,1-1.91-3.31A2.69,2.69,0,0,1,335.57,190Z"/><path class="cls-17" d="M342.83,191.9l-1.1,4.11-.9,3.35a4.26,4.26,0,0,0-.14,1.17l1.33.36a2.71,2.71,0,0,1,5.23,1.4l1.33.36a4,4,0,0,0,.46-1.08l.9-3.36,1.1-4.1,1.11-4.1-4.11-1.1h0l-4.1-1.11-1.1,4.11Zm6.72,1.81a2.7,2.7,0,1,1-1.91-3.31A2.7,2.7,0,0,1,349.55,193.71Z"/><path class="cls-17" d="M357,195.71l-2,7.46a4.23,4.23,0,0,0-.14,1.16l1.33.36a2.7,2.7,0,1,1,5.22,1.4l1.34.36a4.27,4.27,0,0,0,.46-1.07l2-7.46a4.26,4.26,0,0,0-3-5.21h0A4.26,4.26,0,0,0,357,195.71Zm6.72,1.8a2.71,2.71,0,1,1-1.91-3.31A2.7,2.7,0,0,1,363.72,197.51Z"/><path class="cls-17" d="M371.3,199.55l-2,7.46a3.88,3.88,0,0,0-.14,1.16l1.33.36a2.7,2.7,0,1,1,5.22,1.41l1.34.35a4.67,4.67,0,0,0,.46-1.07l2-7.46a4.26,4.26,0,0,0-3-5.21h0A4.26,4.26,0,0,0,371.3,199.55Zm6.72,1.81a2.7,2.7,0,1,1-1.91-3.32A2.71,2.71,0,0,1,378,201.36Z"/><path class="cls-17" d="M383.78,167.72l7.46,2a4.26,4.26,0,0,0,1.17.14l.35-1.33a2.71,2.71,0,1,1,1.41-5.23l.35-1.33a3.93,3.93,0,0,0-1.07-.46l-7.46-2a4.26,4.26,0,0,0-5.21,3h0A4.27,4.27,0,0,0,383.78,167.72Zm1.81-6.72a2.7,2.7,0,1,1-3.32,1.91A2.72,2.72,0,0,1,385.59,161Z"/><path class="cls-17" d="M387.54,153.74l4.1,1.1,3.36.9a3.88,3.88,0,0,0,1.16.14l.36-1.33a2.7,2.7,0,0,1,1.4-5.22l.36-1.33a4.36,4.36,0,0,0-1.08-.47l-3.36-.9-4.1-1.1-4.1-1.1-1.1,4.1h0l-1.1,4.1,4.1,1.1Zm1.8-6.71a2.7,2.7,0,1,1-3.31,1.91A2.7,2.7,0,0,1,389.34,147Z"/><path class="cls-17" d="M391.34,139.57l7.46,2a4.68,4.68,0,0,0,1.17.14l.35-1.34a2.7,2.7,0,1,1,1.41-5.22l.35-1.33a3.93,3.93,0,0,0-1.07-.46l-7.46-2a4.28,4.28,0,0,0-5.21,3h0A4.26,4.26,0,0,0,391.34,139.57Zm1.81-6.71a2.7,2.7,0,1,1-3.32,1.91A2.71,2.71,0,0,1,393.15,132.86Z"/><path class="cls-17" d="M128,24.65l2-7.46a4.36,4.36,0,0,1,.47-1.08l1.33.36A2.7,2.7,0,1,0,137,17.88l1.33.35a3.91,3.91,0,0,1-.14,1.17l-2,7.46a4.27,4.27,0,0,1-5.2,3h0A4.26,4.26,0,0,1,128,24.65Zm6.71,1.8a2.7,2.7,0,1,0-3.31,1.91A2.7,2.7,0,0,0,134.69,26.45Z"/><path class="cls-17" d="M142.28,28.49l2-7.46a4.67,4.67,0,0,1,.46-1.07l1.34.35a2.7,2.7,0,1,0,5.22,1.41l1.33.35a3.91,3.91,0,0,1-.14,1.17l-2,7.46a4.27,4.27,0,0,1-5.2,3h0A4.26,4.26,0,0,1,142.28,28.49ZM149,30.3a2.7,2.7,0,1,0-3.31,1.91A2.71,2.71,0,0,0,149,30.3Z"/><path class="cls-17" d="M156.45,32.3l1.11-4.1.9-3.36a4,4,0,0,1,.46-1.08l1.33.36a2.7,2.7,0,0,0,5.22,1.4l1.34.36a4.68,4.68,0,0,1-.14,1.17l-.91,3.35-1.1,4.1-1.1,4.11-4.1-1.11h0l-4.1-1.1,1.1-4.1Zm6.72,1.8A2.7,2.7,0,1,0,159.85,36,2.71,2.71,0,0,0,163.17,34.1Z"/><path class="cls-17" d="M170.69,36.12l2-7.46a3.93,3.93,0,0,1,.46-1.07l1.33.35a2.71,2.71,0,0,0,5.23,1.41l1.33.36a4.23,4.23,0,0,1-.14,1.16l-2,7.46a4.25,4.25,0,0,1-5.2,3h0A4.26,4.26,0,0,1,170.69,36.12Zm6.71,1.81a2.7,2.7,0,1,0-3.31,1.91A2.71,2.71,0,0,0,177.4,37.93Z"/><path class="cls-17" d="M185,40l2-7.46a3.93,3.93,0,0,1,.46-1.07l1.33.36a2.7,2.7,0,1,0,5.22,1.4l1.34.36a4.66,4.66,0,0,1-.14,1.16l-2,7.46a4.25,4.25,0,0,1-5.2,3h0A4.27,4.27,0,0,1,185,40Zm6.72,1.81a2.7,2.7,0,1,0-3.31,1.91A2.7,2.7,0,0,0,191.7,41.77Z"/><path class="cls-17" d="M199.42,43.84l2-7.46a3.93,3.93,0,0,1,.46-1.07l1.33.35a2.7,2.7,0,1,0,5.22,1.41l1.34.36a4.66,4.66,0,0,1-.14,1.16l-2,7.46a4.25,4.25,0,0,1-5.2,3h0A4.27,4.27,0,0,1,199.42,43.84Zm6.72,1.81a2.7,2.7,0,1,0-3.31,1.91A2.71,2.71,0,0,0,206.14,45.65Z"/><path class="cls-17" d="M213.72,47.68l2-7.45a4,4,0,0,1,.46-1.08l1.33.36a2.71,2.71,0,0,0,5.23,1.4l1.33.36a4.23,4.23,0,0,1-.14,1.16l-2,7.46a4.25,4.25,0,0,1-5.2,3h0A4.27,4.27,0,0,1,213.72,47.68Zm6.72,1.81a2.71,2.71,0,1,0-3.32,1.91A2.71,2.71,0,0,0,220.44,49.49Z"/><path class="cls-17" d="M227.7,51.44l1.1-4.11.9-3.35a4.36,4.36,0,0,1,.47-1.08l1.33.36a2.7,2.7,0,1,0,5.22,1.4l1.33.36a3.91,3.91,0,0,1-.14,1.17l-.9,3.35-1.1,4.1-1.1,4.11-4.11-1.11h0l-4.1-1.1Zm6.71,1.8a2.7,2.7,0,1,0-3.31,1.91A2.7,2.7,0,0,0,234.41,53.24Z"/><path class="cls-17" d="M241.89,55.25l2-7.46a4,4,0,0,1,.46-1.08l1.33.36a2.71,2.71,0,0,0,5.23,1.4l1.33.36A4.26,4.26,0,0,1,252.1,50l-2,7.46a4.28,4.28,0,0,1-5.21,3h0A4.26,4.26,0,0,1,241.89,55.25Zm6.71,1.8A2.7,2.7,0,1,0,245.29,59,2.7,2.7,0,0,0,248.6,57.05Z"/><path class="cls-17" d="M256.18,59.09l2-7.46a4,4,0,0,1,.46-1.08l1.33.36a2.7,2.7,0,0,0,5.22,1.41l1.34.35a4.68,4.68,0,0,1-.14,1.17l-2,7.46a4.26,4.26,0,0,1-5.2,3h0A4.27,4.27,0,0,1,256.18,59.09Zm6.72,1.8a2.71,2.71,0,1,0-3.32,1.91A2.71,2.71,0,0,0,262.9,60.89Z"/><path class="cls-17" d="M270.62,63l2-7.46a4,4,0,0,1,.46-1.08l1.33.36a2.7,2.7,0,1,0,5.22,1.4l1.34.36a4.68,4.68,0,0,1-.14,1.17l-2,7.46a4.26,4.26,0,0,1-5.2,3h0A4.27,4.27,0,0,1,270.62,63Zm6.72,1.8A2.71,2.71,0,1,0,274,66.68,2.71,2.71,0,0,0,277.34,64.77Z"/><path class="cls-17" d="M284.92,66.81l2-7.46a4,4,0,0,1,.46-1.08l1.33.36A2.7,2.7,0,0,0,293.94,60l1.34.35a4.68,4.68,0,0,1-.14,1.17l-2,7.46a4.27,4.27,0,0,1-5.2,3h0A4.27,4.27,0,0,1,284.92,66.81Zm6.72,1.81a2.7,2.7,0,1,0-3.31,1.9A2.71,2.71,0,0,0,291.64,68.62Z"/><path class="cls-17" d="M298.9,70.57l1.1-4.11.9-3.35a4.34,4.34,0,0,1,.46-1.08l1.34.36a2.7,2.7,0,1,0,5.22,1.4l1.33.36a3.88,3.88,0,0,1-.14,1.16l-.9,3.36-1.1,4.1-1.1,4.1-4.11-1.1h0l-4.1-1.1Zm6.71,1.8a2.7,2.7,0,1,0-3.31,1.91A2.69,2.69,0,0,0,305.61,72.37Z"/><path class="cls-17" d="M313.48,74.48l2-7.46a4,4,0,0,1,.46-1.08l1.33.36a2.71,2.71,0,1,0,5.23,1.41l1.33.35a4.26,4.26,0,0,1-.14,1.17l-2,7.46a4.28,4.28,0,0,1-5.21,3h0A4.26,4.26,0,0,1,313.48,74.48Zm6.71,1.81a2.7,2.7,0,1,0-3.31,1.9A2.71,2.71,0,0,0,320.19,76.29Z"/><path class="cls-17" d="M327.77,78.32l2-7.46a3.93,3.93,0,0,1,.46-1.07l1.33.35a2.71,2.71,0,0,0,5.23,1.41l1.33.35a4.68,4.68,0,0,1-.14,1.17l-2,7.46a4.25,4.25,0,0,1-5.2,3h0A4.27,4.27,0,0,1,327.77,78.32Zm6.72,1.81A2.7,2.7,0,1,0,331.18,82,2.71,2.71,0,0,0,334.49,80.13Z"/><path class="cls-17" d="M342.21,82.2l2-7.46a4,4,0,0,1,.46-1.08L346,74a2.7,2.7,0,1,0,5.22,1.41l1.34.35a4.68,4.68,0,0,1-.14,1.17l-2,7.46a4.26,4.26,0,0,1-5.2,3h0A4.27,4.27,0,0,1,342.21,82.2ZM348.93,84a2.7,2.7,0,1,0-3.31,1.91A2.71,2.71,0,0,0,348.93,84Z"/><path class="cls-17" d="M356.51,86l2-7.46a3.93,3.93,0,0,1,.46-1.07l1.33.35a2.7,2.7,0,1,0,5.22,1.41l1.34.35a4.68,4.68,0,0,1-.14,1.17l-2,7.46a4.25,4.25,0,0,1-5.2,3h0A4.27,4.27,0,0,1,356.51,86Zm6.72,1.81a2.7,2.7,0,1,0-3.31,1.91A2.71,2.71,0,0,0,363.23,87.85Z"/><path class="cls-18" d="M206.74,109.27a1,1,0,0,0-.79.13l-2.85-.76a.63.63,0,0,0-.6.14l-9,7.9a.63.63,0,0,0-.2.32l-1.41,5.25-5.23,4.17-6.75-20.27a.65.65,0,0,0-1.25,0l-7.16,26.64L167,131.62l1.45-5.42a1,1,0,1,0-1.39-1.13,1,1,0,0,0,.13.79l-1.62,6a.64.64,0,0,0,.46.8l5.78,1.55a.65.65,0,0,0,.79-.46l6.77-25.18,6.36,19.1a.67.67,0,0,0,.43.42.61.61,0,0,0,.59-.12l6.13-4.89a.63.63,0,0,0,.23-.34l1.41-5.26L203.1,110l2.51.67a1,1,0,0,0,.62.51,1,1,0,0,0,.51-1.9Z"/><path class="cls-19" d="M170.2,140.22l-5.78-1.55a6.84,6.84,0,0,1-4.82-8.36l1.26-4.69a7.15,7.15,0,0,1,8.18-7.37l3.67-13.66a6.77,6.77,0,0,1,6.38-5,6.85,6.85,0,0,1,6.67,4.66l2.89,8.66a6.13,6.13,0,0,1,.79-.82l9-7.9a6.79,6.79,0,0,1,6.26-1.46l1.48.4a7.15,7.15,0,1,1-1.55,14l-.23-.06L200,120.93l-.93,3.46a6.79,6.79,0,0,1-2.34,3.57l-6.12,4.88A6.81,6.81,0,0,1,180,130l-1.45,5.38A6.83,6.83,0,0,1,170.2,140.22Zm36.38-26.81h0Z"/><path class="cls-18" d="M211.17,108.06l-9-2.42a.69.69,0,0,0-.59.13l-12.5,10.28-5-15.3a.66.66,0,0,0-.46-.43l-8.18-2.19a.65.65,0,0,0-.8.46l-5.9,22a.65.65,0,0,0,.06.49l1.86,3.23-.95,3.54a1,1,0,0,0-.51.62,1,1,0,0,0,1.9.51,1,1,0,0,0-.13-.79l1-3.8a.67.67,0,0,0-.06-.5l-1.86-3.23,5.66-21.09,7.21,1.94,5.17,15.88a.66.66,0,0,0,.44.42.71.71,0,0,0,.6-.12l13-10.68,8,2.16-.71,2.64-3.22,1.86a.64.64,0,0,0-.31.39l-2.61,9.74a1,1,0,0,0-.51.62,1,1,0,0,0,1.9.51,1,1,0,0,0-.13-.79l2.54-9.48,3.23-1.86a.64.64,0,0,0,.3-.4l.95-3.52A.64.64,0,0,0,211.17,108.06Z"/><path class="cls-19" d="M168.34,135.61a7.15,7.15,0,0,1-5.05-8.76,7,7,0,0,1,.75-1.78l-.54-.93a6.78,6.78,0,0,1-.68-5.17l5.91-22a6.81,6.81,0,0,1,8.35-4.82l8.18,2.2A6.77,6.77,0,0,1,190,98.85l2.18,6.7,5.53-4.54a6.81,6.81,0,0,1,6.1-1.32l9,2.41a6.84,6.84,0,0,1,4.82,8.36l-1,3.52a6.76,6.76,0,0,1-3.18,4.14l-1,.59-1.52,5.64a7.15,7.15,0,1,1-14-1.55,7.37,7.37,0,0,1,.86-2l.77-2.85-5.42,4.45a6.83,6.83,0,0,1-6,1.33l-.19-.05a6.82,6.82,0,0,1-4.57-4.44l-3-9.13-2.58,9.64.58,1A6.8,6.8,0,0,1,178,126l-.66,2.44a7.12,7.12,0,0,1-9,7.2Z"/><path class="cls-18" d="M182.89,105a1,1,0,0,0-.48-.72l-.25-1.23a.63.63,0,0,0-.47-.5l-4.17-1.12a.64.64,0,0,0-.8.46l-4.47,16.64a1,1,0,1,0,1.39,1.12,1,1,0,0,0-.13-.79l4.3-16,3.15.85.17.84a.94.94,0,0,0-.18.7,1,1,0,1,0,1.94-.24Z"/><path class="cls-19" d="M170.84,126.3a7.15,7.15,0,0,1-4.18-10.74l4.1-15.27a6.83,6.83,0,0,1,8.36-4.82l4.17,1.12a6.78,6.78,0,0,1,4.88,5.08,7,7,0,0,1,.84,2.57h0a7.15,7.15,0,0,1-6.2,8,8.85,8.85,0,0,1-1.14,0l-1.84,6.83a7.12,7.12,0,0,1-9,7.2Zm15.24-18.09h0Z"/><path class="cls-18" d="M190.33,120.33a1,1,0,0,0-1.75.55l-.53.41-3.7-11.42a1,1,0,1,0-1.24.4l4,12.32a.67.67,0,0,0,.43.42h0a.66.66,0,0,0,.57-.11l1.27-1a1,1,0,0,0,.77-.19A1,1,0,0,0,190.33,120.33Z"/><path class="cls-19" d="M186,129l-.23-.06h0a6.82,6.82,0,0,1-4.49-4.42l-3.56-11a6.79,6.79,0,0,1-1-1.9,7.15,7.15,0,1,1,13.6-4.4,7,7,0,0,1,.34,2.12l1.62,5a7.13,7.13,0,0,1-.19,13.3l-.16.13A6.84,6.84,0,0,1,186,129Z"/><path class="cls-18" d="M201.15,137.64l2-7.37a.64.64,0,0,0-.06-.47l-2.15-4.1,3.47-12.94a.65.65,0,0,0-.28-.72.66.66,0,0,0-.77,0L196.23,118a1,1,0,1,0,.49,1.72,1,1,0,0,0,.35-.72l5.53-4.62-3,11.2a.7.7,0,0,0,0,.47l2.16,4.1-1.91,7.12a1,1,0,0,0-.51.62,1,1,0,0,0,1.9.51A1,1,0,0,0,201.15,137.64Z"/><path class="cls-19" d="M198.48,145.08a7.15,7.15,0,0,1-5-8.76,7.23,7.23,0,0,1,.86-2l.93-3.44-1-2a6.88,6.88,0,0,1-.78-3.32,7.2,7.2,0,0,1-2.81-2.06,7.16,7.16,0,0,1,.93-10.07,7.22,7.22,0,0,1,1.84-1.11l6-5a6.82,6.82,0,0,1,11,7L207.5,125l1,2a6.78,6.78,0,0,1,.55,4.94l-1.61,6a7.13,7.13,0,0,1-9,7.21ZM196,141Z"/><path class="cls-18" d="M209.6,117.58a1,1,0,1,0-1.77.28l-6.19,23.07-4.49-1.21,2.06-7.66a1,1,0,0,0,.51-.62,1,1,0,0,0-1.9-.51,1,1,0,0,0,.13.79l-2.23,8.3a.66.66,0,0,0,.46.8l5.75,1.54a.66.66,0,0,0,.8-.46l6.36-23.7A1,1,0,0,0,209.6,117.58Z"/><path class="cls-19" d="M200.33,148.32l-5.75-1.55a6.83,6.83,0,0,1-4.82-8.35l1.87-6.94a7.12,7.12,0,0,1,8.14-7.37l1.74-6.48a7.15,7.15,0,1,1,14,1.55,6.9,6.9,0,0,1-.87,2l-6,22.34A6.83,6.83,0,0,1,200.33,148.32Z"/><path class="cls-18" d="M238.71,135.7a1,1,0,0,0-.81.13l-5-1.35a.67.67,0,0,0-.5.07l-2.88,1.66-7.28-2a.68.68,0,0,0-.82.47l-2.82,10.51-4-1.06,7.24-27,6.6-3.8,7.88,2.12a1.06,1.06,0,0,0,.63.52,1,1,0,0,0,1.23-.71,1,1,0,0,0-1.51-1.1L228.53,112a.66.66,0,0,0-.51.07L221,116.18a.67.67,0,0,0-.31.41l-7.49,27.87a.66.66,0,0,0,.47.82l5.25,1.41a.65.65,0,0,0,.81-.47l2.83-10.51,6.9,1.86a.67.67,0,0,0,.5-.07l2.88-1.66,4.77,1.28a1,1,0,0,0,.63.52,1,1,0,0,0,1.23-.71A1,1,0,0,0,238.71,135.7Z"/><path class="cls-19" d="M217.27,152.65,212,151.24a6.85,6.85,0,0,1-4.83-8.38L214.68,115a6.77,6.77,0,0,1,3.19-4.15l7.07-4.08a6.83,6.83,0,0,1,5.19-.68l6.78,1.82a7.34,7.34,0,0,1,2.18.24A7.17,7.17,0,1,1,235.36,122a6.91,6.91,0,0,1-2-.89L229.31,120l-2.16,1.25-2,7.39,3.46.93.67-.39a6.8,6.8,0,0,1,5.18-.68l3.65,1a7,7,0,0,1,2.19.23,7.17,7.17,0,1,1-3.72,13.85,7.11,7.11,0,0,1-2-.88l-.94-.25-.67.38a6.71,6.71,0,0,1-5.18.68l-.95-.25-1.22,4.55A6.85,6.85,0,0,1,217.27,152.65Zm24-11.67h0Z"/><path class="cls-18" d="M248.7,123.87l-3.92-7.16a.65.65,0,0,0-.41-.33l-2.43-.65a.68.68,0,0,0-.52.07l-3.07,1.86-9.3-2.49a.65.65,0,0,0-.51.07l-5.43,3.29a.68.68,0,0,0-.3.4l-.78,2.9a1.06,1.06,0,0,0-.52.63,1,1,0,0,0,.71,1.23,1,1,0,0,0,1.1-1.51l.71-2.65,4.95-3,9.3,2.5a.69.69,0,0,0,.52-.08l3.07-1.86,1.88.51,3.66,6.67-2.37,8.8L242,134.92a.72.72,0,0,0-.3.4l-3.05,11.37a1,1,0,0,0-.52.63,1,1,0,0,0,1.94.52,1,1,0,0,0-.13-.8l3-11.12,3.06-1.85a.64.64,0,0,0,.3-.4l2.5-9.31A.61.61,0,0,0,248.7,123.87Z"/><path class="cls-19" d="M237.22,154.51a7.18,7.18,0,0,1-5.06-8.79,7,7,0,0,1,.88-2l2.69-10a6.76,6.76,0,0,1,3.06-4.07l.94-.58,1.08-4-.13-.22a6.82,6.82,0,0,1-4,.14l-6.75-1.81-.31.18a6.56,6.56,0,0,1-.21,1.24,7.17,7.17,0,1,1-13-5.73l.41-1.53a6.88,6.88,0,0,1,3.05-4.07l5.44-3.29a6.87,6.87,0,0,1,5.31-.76L237.4,111l.82-.49a6.89,6.89,0,0,1,5.32-.76l2.43.66a6.87,6.87,0,0,1,4.22,3.31l3.92,7.17h0a6.83,6.83,0,0,1,.6,5l-2.5,9.31a6.8,6.8,0,0,1-3.06,4.07l-.94.57-2,7.35a7,7,0,0,1-.23,2.18A7.19,7.19,0,0,1,237.22,154.51Zm-2.48-4.12h0Z"/><path class="cls-18" d="M242.22,124.93l-2-3.47a.66.66,0,0,0-.41-.32l-9.91-2.66a.7.7,0,0,0-.51.07l-3.59,2.11a.69.69,0,0,0-.31.4l-1,3.84-3.66,2.15a.71.71,0,0,0-.31.41l-3.69,13.72a1.06,1.06,0,0,0-.52.63A1,1,0,0,0,217,143a1,1,0,0,0,1.23-.71,1,1,0,0,0-.13-.8l3.62-13.47,3.66-2.15a.69.69,0,0,0,.31-.4l1-3.84,3.12-1.83,9.37,2.52,1.69,3-2,7.42-13.59-3.65a1,1,0,0,0-.63-.52,1,1,0,0,0-1.23.71A1,1,0,0,0,225,130.4l14.24,3.83a.67.67,0,0,0,.81-.47l2.24-8.33A.72.72,0,0,0,242.22,124.93Z"/><path class="cls-19" d="M215.42,149a7.18,7.18,0,0,1-5.06-8.79,6.91,6.91,0,0,1,.89-2l3.31-12.35a6.79,6.79,0,0,1,3.14-4.12l1.49-.88.37-1.4a6.85,6.85,0,0,1,3.14-4.12l3.6-2.11a6.84,6.84,0,0,1,5.23-.7l9.91,2.66a6.84,6.84,0,0,1,4.18,3.24l2,3.47a6.81,6.81,0,0,1,.66,5.13L246,135.36a6.83,6.83,0,0,1-8.37,4.82L225.73,137l-1.28,4.77a7.37,7.37,0,0,1-.24,2.18A7.19,7.19,0,0,1,215.42,149Z"/><path class="cls-18" d="M243.94,130.53l1.57-5.85a.65.65,0,0,0-.06-.51l-2.25-3.9a1,1,0,0,0-.08-.81,1,1,0,0,0-1.74,1,1,1,0,0,0,.66.48l2.11,3.66-1.5,5.59a1,1,0,0,0-.51.63,1,1,0,0,0,.71,1.23,1,1,0,0,0,1.23-.71A1,1,0,0,0,243.94,130.53Z"/><path class="cls-19" d="M241.25,138a7.18,7.18,0,0,1-5.07-8.78,7.3,7.3,0,0,1,.88-2l.47-1.76-.12-.21a7.17,7.17,0,1,1,11.05-8.87,7,7,0,0,1,.79,2l1.54,2.67a6.82,6.82,0,0,1,.68,5.19l-1.2,4.47a7.09,7.09,0,0,1-.24,2.19A7.17,7.17,0,0,1,241.25,138Zm-2.46-4.08Z"/><path class="cls-18" d="M229.28,132.87a1,1,0,0,0-.81.13l-4.32-1.16a1,1,0,0,0-.63-.52,1,1,0,0,0-.52,1.94,1,1,0,0,0,.8-.13l4.33,1.16a1,1,0,0,0,.63.51,1,1,0,1,0,.52-1.93Z"/><path class="cls-19" d="M227.16,140.76a7.17,7.17,0,0,1-2-.88l-1.6-.43a7.18,7.18,0,1,1,3.57-13.19l1.56.41a7.4,7.4,0,0,1,2.19.24,7.17,7.17,0,0,1-3.72,13.85Zm-3.27-7.5,1.55,2.4,2.55-1.3a4.49,4.49,0,0,0,.25-.73,5,5,0,0,0,.15-.75l-1.57-2.38-2.54,1.28a5.55,5.55,0,0,0-.25.72A3.91,3.91,0,0,0,223.89,133.26Z"/><path class="cls-18" d="M245.44,139.33a1,1,0,0,0-1.93-.52.9.9,0,0,0,.14.76l-3.2,11.9-4.59-1.23,2.89-10.73a.65.65,0,0,0-.49-.77l-3.25-.88a1.11,1.11,0,0,0-.49-.44,1,1,0,0,0-1.31.45,1,1,0,0,0,.52,1.25,1,1,0,0,0,1-.05l2.61.7-2.88,10.72a.64.64,0,0,0,.48.78l5.87,1.58a.66.66,0,0,0,.81-.43l3.36-12.51A.88.88,0,0,0,245.44,139.33Z"/><path class="cls-19" d="M239.17,158.8l-5.87-1.58a6.82,6.82,0,0,1-4.84-8.33l1.34-5a7.2,7.2,0,0,1-2.38-3.17,7,7,0,0,1,.19-5.46,7.21,7.21,0,0,1,9.38-3.51,6.83,6.83,0,0,1,.93.49l1.94.52c.27.08.53.16.79.26a7.19,7.19,0,0,1,10.75,7.89,7.11,7.11,0,0,1-.88,2l-3,11.1A6.82,6.82,0,0,1,239.17,158.8Zm-9.57-18h0Z"/><path class="cls-18" d="M293.79,130a.66.66,0,0,0-.47-.5l-7.24-1.94a.65.65,0,0,0-.6.13L272,138.87l-6.6-1.77,3.71-13.83a.66.66,0,0,0-.47-.82l-6.2-1.66a.66.66,0,0,0-.82.47l-.84,3.13a1,1,0,0,0-.52.63,1,1,0,1,0,1.94.52,1,1,0,0,0-.14-.8l.67-2.49,4.92,1.32L263.9,137.4a.65.65,0,0,0,.47.81l7.58,2a.66.66,0,0,0,.59-.13l13.53-11.23,5.68,1.53-5.89,5.08a1,1,0,0,0-.78.23,1,1,0,1,0,1.31,1.52,1,1,0,0,0,.34-.74l6.85-5.9A.64.64,0,0,0,293.79,130Z"/><path class="cls-19" d="M270.35,146.2l-7.58-2a6.84,6.84,0,0,1-4.83-8.37l1-3.71a7.15,7.15,0,0,1-3.78-10.67l.47-1.76a6.85,6.85,0,0,1,8.38-4.83l6.2,1.67a6.84,6.84,0,0,1,4.83,8.37l-1.19,4.43,7.7-6.4a6.88,6.88,0,0,1,6.14-1.34l7.24,2a6.83,6.83,0,0,1,2.69,11.77l-5.77,5a7.07,7.07,0,0,1-1.42,1.67,7.19,7.19,0,0,1-9.85-.45l-4.09,3.39A6.81,6.81,0,0,1,270.35,146.2Z"/><path class="cls-18" d="M285,163.73l-7.35-19.66,3.83-3a.72.72,0,0,0,.23-.36l1.51-5.63,3.51-2.62a1,1,0,0,0,.79-.18,1,1,0,0,0,.2-1.4,1,1,0,0,0-1.4-.2.94.94,0,0,0-.39.71l-3.69,2.76a.66.66,0,0,0-.25.36l-1.51,5.64-4,3.17a.66.66,0,0,0-.21.75L283.34,163l-6-1.61-1.79-5.32a1,1,0,0,0,.08-.81,1,1,0,1,0-1.9.64,1,1,0,0,0,.56.6l1.9,5.65a.68.68,0,0,0,.46.44l7.58,2a.66.66,0,0,0,.8-.88Z"/><path class="cls-19" d="M282.64,170.57l-7.58-2a6.82,6.82,0,0,1-4.7-4.42l-1.45-4.3a7,7,0,0,1-1-1.94,7.15,7.15,0,0,1,3.67-8.76l-1.08-2.88a6.8,6.8,0,0,1,2.19-7.77l2.42-1.89,1-3.66a6.81,6.81,0,0,1,2.51-3.7l2.55-1.91a7,7,0,0,1,1.52-1.56,7.18,7.18,0,0,1,10,1.44,7.17,7.17,0,0,1-1.44,10,7.3,7.3,0,0,1-1.93,1l-.67.5-1,3.57a6.86,6.86,0,0,1-2.38,3.61l-.27.21,5.77,15.45h0a6.84,6.84,0,0,1-8.18,9Z"/><path class="cls-18" d="M261.32,150.67a1,1,0,1,0-1.94-.52,1,1,0,0,0,.13.81l-1.41,5.25-4.26-1.15,6.6-24.57,3.45-1.83a.7.7,0,0,0,.33-.42l.47-1.75a1.06,1.06,0,0,0,.52-.63,1,1,0,0,0-.71-1.23,1,1,0,0,0-1.23.71,1,1,0,0,0,.13.8l-.4,1.48-3.44,1.83a.59.59,0,0,0-.33.41l-6.85,25.5a.66.66,0,0,0,.47.82l5.55,1.49a.67.67,0,0,0,.82-.47l1.58-5.9A1,1,0,0,0,261.32,150.67Z"/><path class="cls-19" d="M256.8,163.63l-5.55-1.5a6.83,6.83,0,0,1-4.83-8.37l6.85-25.5a6.85,6.85,0,0,1,3.4-4.26l.67-.36a7.17,7.17,0,1,1,12.94,5.82l-.11.38a6.85,6.85,0,0,1-3.39,4.27l-1.08.57-2.46,9.17a7.18,7.18,0,0,1,3.15,10.42l-1.22,4.53A6.84,6.84,0,0,1,256.8,163.63Zm7.86-16.06h0Zm3.91-24.8h0Z"/><path class="cls-18" d="M260.06,143.05l2.61-9.72a1,1,0,0,0,.52-.63,1,1,0,0,0-.71-1.23,1,1,0,0,0-1.1,1.51l-2.61,9.73a1,1,0,0,0-.51.63,1,1,0,1,0,1.8-.29Z"/><path class="cls-19" d="M257.37,150.53a7.18,7.18,0,0,1-5.07-8.79,7.11,7.11,0,0,1,.88-2l1.88-7a7.24,7.24,0,0,1,.24-2.17,7.17,7.17,0,0,1,13.85,3.72,7.62,7.62,0,0,1-.89,2l-1.87,7a7.4,7.4,0,0,1-.24,2.19A7.19,7.19,0,0,1,257.37,150.53Zm-2.46-4.09Z"/><path class="cls-18" d="M279.88,158.35a1,1,0,0,0-.58-.58L277.11,152a.65.65,0,0,0-.45-.4l-3.1-.84L271.62,145a.7.7,0,0,0-.46-.43l-8.45-2.27a.66.66,0,0,0-.81.47l-.63,2.32-3.47,2a.69.69,0,0,0-.32.41L256.27,152a1.06,1.06,0,0,0-.52.63,1,1,0,0,0,.71,1.23,1,1,0,0,0,1.23-.71,1,1,0,0,0-.13-.8l1.14-4.25,3.48-2a.66.66,0,0,0,.31-.4l.52-1.94,7.46,2,1.94,5.76a.66.66,0,0,0,.46.43l3.11.84,2.08,5.45a1,1,0,0,0-.05.82,1,1,0,1,0,1.87-.71Z"/><path class="cls-19" d="M254.86,159.83A7.18,7.18,0,0,1,250.68,149l.85-3.14a6.73,6.73,0,0,1,3.19-4.15L256,141a6.84,6.84,0,0,1,8.33-4.68l8.45,2.27a6.84,6.84,0,0,1,4.7,4.42l.89,2.62a6.86,6.86,0,0,1,4.52,4.15l1.69,4.44a7.21,7.21,0,0,1,.93,7.4,7.17,7.17,0,0,1-9.48,3.6,7.07,7.07,0,0,1-3.77-4,6.49,6.49,0,0,1-.45-2.13l-.45-1.18h-.07a6.84,6.84,0,0,1-4.7-4.42l-.8-2.37q-.25.18-.51.33l-1.27.73-.11.41a7,7,0,0,1-.23,2.17A7.19,7.19,0,0,1,254.86,159.83Zm4.2-2.32Z"/><path class="cls-18" d="M279.07,138.49a1,1,0,0,0-1.79.56l-4,3.11-8.68-2.33a1,1,0,0,0-.63-.52,1,1,0,0,0-1.23.71,1,1,0,0,0,.71,1.23,1,1,0,0,0,.8-.13l9,2.42a.7.7,0,0,0,.59-.12l4.24-3.33a1,1,0,0,0,.79-.19A1,1,0,0,0,279.07,138.49Z"/><path class="cls-19" d="M261.88,147.21a7.17,7.17,0,1,1,3.72-13.85,6.91,6.91,0,0,1,2,.89l4.33,1.16.43-.34a7.17,7.17,0,1,1,10.34,9.69,6.93,6.93,0,0,1-1.91,1.07l-3.12,2.44a6.85,6.85,0,0,1-6,1.22l-7.62-2A7.3,7.3,0,0,1,261.88,147.21Zm-1-11.26h0Z"/><path class="cls-18" d="M276.56,148.55a1.06,1.06,0,0,0-.6-.56l-.9-2.17a1,1,0,0,0,0-.82,1,1,0,1,0-1.85.77,1,1,0,0,0,.6.56l.9,2.17a1,1,0,0,0,0,.82,1,1,0,0,0,1.86-.77Z"/><path class="cls-19" d="M273.78,155.87a7,7,0,0,1-.88-.3,7.19,7.19,0,0,1-4.39-5.76,7.17,7.17,0,1,1,12.28-7.16,6.78,6.78,0,0,1,.48,1.87,6.64,6.64,0,0,1,1,1.69h0a7.17,7.17,0,0,1-8.48,9.66Zm.14-2.06h0Zm-1.47-3.55a5.17,5.17,0,0,0,6.36-2.64l-.9-.44-2,.81.53-1.49-1.43-.68L277,145l.33-.95a5.11,5.11,0,0,0-3.67.1,5.19,5.19,0,0,0-2.7,2.54l.91.44,1.95-.81-.52,1.49,1.42.68-1.94.81-.33.93,4.1-1.69-4.1,1.69Z"/><path class="cls-18" d="M308.67,166.38a1,1,0,0,0-.81.13l-8.14-2.19-1.83-3.18,4.28-16a.62.62,0,0,0-.06-.5l-1.71-3,2.47-9.18,2.36.63a1,1,0,0,0,.63.52,1,1,0,0,0,.52-1.94,1,1,0,0,0-.81.13l-3-.8a.66.66,0,0,0-.82.47L299,141.63a.65.65,0,0,0,.07.51l1.7,3-4.28,16a.65.65,0,0,0,.06.51l2.11,3.66a.71.71,0,0,0,.41.31l8.41,2.26a1,1,0,1,0,1.15-1.42Z"/><path class="cls-19" d="M306.55,174.27a7,7,0,0,1-2-.88l-7-1.89a6.8,6.8,0,0,1-4.15-3.19l-2.11-3.66a6.82,6.82,0,0,1-.68-5.19L294.2,146l-.44-.75a6.82,6.82,0,0,1-.68-5.19l2.72-10.09a6.83,6.83,0,0,1,8.37-4.83l1.63.44a7.33,7.33,0,0,1,2.18.23,7.17,7.17,0,0,1-.68,14l-.28,1.07.43.75a6.8,6.8,0,0,1,.68,5.18l-3.36,12.51,3.32.9a7,7,0,0,1,2.18.23,7.17,7.17,0,1,1-3.72,13.85Z"/><path class="cls-18" d="M330.75,138.44l-19.66-5.28a.67.67,0,0,0-.5.07l-3.2,1.84-2.61-.7a.66.66,0,0,0-.82.47L302.57,140a1,1,0,0,0-.52.63,1,1,0,0,0,1.94.52,1,1,0,0,0-.13-.8l1.21-4.52,2.24.6a.7.7,0,0,0,.51-.07l3.19-1.84,18.75,5-1.26,4.66-21.71-5.83a.66.66,0,0,0-.82.47l-2.32,8.65a.66.66,0,0,0,.47.82l17.75,4.77-1.11,4.12-9.55-2.57-2-3.42a.71.71,0,0,0-.41-.31l-4.08-1.1a1,1,0,0,0-.63-.51,1,1,0,1,0-.52,1.93,1,1,0,0,0,.81-.13l3.81,1,2,3.42a.71.71,0,0,0,.41.31l10.46,2.81a.67.67,0,0,0,.81-.47l1.46-5.41a.68.68,0,0,0-.47-.82l-17.75-4.77,2-7.36,21.71,5.83a.66.66,0,0,0,.82-.47l1.6-6A.68.68,0,0,0,330.75,138.44Z"/><path class="cls-19" d="M319.46,164.63,309,161.82a6.75,6.75,0,0,1-4.15-3.18l-.69-1.2a7.17,7.17,0,0,1-7.22-9,7.05,7.05,0,0,1,.55-1.43,8,8,0,0,1,.2-1.07l.05-.17A7.18,7.18,0,0,1,297,137l1-3.79a6.85,6.85,0,0,1,8.38-4.83l.15,0,1-.56a6.71,6.71,0,0,1,5.18-.68l19.66,5.28a6.83,6.83,0,0,1,4.82,8.37l-1.59,5.95a6.86,6.86,0,0,1-6.11,5,6.73,6.73,0,0,1-.19,2.55l-1.45,5.41A6.83,6.83,0,0,1,319.46,164.63Z"/><path class="cls-18" d="M318.68,153.6a1,1,0,0,0-.81.13l-3.84-1a1,1,0,1,0-.34,1.29l3.83,1a1,1,0,0,0,.64.52,1,1,0,0,0,.52-1.94Z"/><path class="cls-19" d="M316.56,161.5a7.56,7.56,0,0,1-2-.89l-1.09-.29a7.3,7.3,0,0,1-2.18-.24A7.17,7.17,0,1,1,315,146.23a6.8,6.8,0,0,1,2,.89l1.1.29a7.06,7.06,0,0,1,2.18.24,7.17,7.17,0,0,1-3.72,13.85ZM313.69,154l1.45,2.24,2.38-1.21-.37,1.38a5.1,5.1,0,0,0,1-1.91,5.18,5.18,0,0,0,.11-2.14l-.37,1.38-1.46-2.23L314,152.7l.37-1.38a5.21,5.21,0,0,0-1.09,4.05Z"/><path class="cls-18" d="M326.61,139.88a1,1,0,0,0-.8.14l-13.22-3.55A1,1,0,0,0,312,136a1,1,0,0,0-1.23.71,1,1,0,0,0,.71,1.23,1,1,0,0,0,.81-.14l13.21,3.55a1,1,0,0,0,.63.52,1,1,0,0,0,.52-1.94Z"/><path class="cls-19" d="M324.49,147.78a7.19,7.19,0,0,1-2-.89L312,144.08a7.34,7.34,0,0,1-2.18-.24A7.17,7.17,0,0,1,313.56,130a7,7,0,0,1,2,.89L326,133.69a7.27,7.27,0,0,1,2.17.24,7.17,7.17,0,1,1-3.72,13.85Zm-17.4-8.53h0Zm23.87-.73h0Zm-22.08-5.94h0Z"/><path class="cls-18" d="M318.41,169a1,1,0,0,0-.81.14l-3.82-1-2-3.42a.69.69,0,0,0-.4-.31l-9.11-2.45-1-1.81,1.69-6.3,2.36.64a1,1,0,0,0,.63.51,1,1,0,1,0,.52-1.93,1,1,0,0,0-.81.13l-3-.81a.68.68,0,0,0-.82.47L299.9,160a.64.64,0,0,0,.06.51l1.32,2.29a.68.68,0,0,0,.41.31l9.1,2.45,2,3.42a.66.66,0,0,0,.4.31l4.09,1.09a1,1,0,0,0,.63.52,1,1,0,0,0,1.23-.71A1,1,0,0,0,318.41,169Z"/><path class="cls-19" d="M316.29,176.89a7,7,0,0,1-2-.89l-2.71-.73a6.78,6.78,0,0,1-4.15-3.18l-.69-1.21-6.64-1.78a6.8,6.8,0,0,1-4.15-3.19l-1.32-2.29a6.82,6.82,0,0,1-.68-5.19l1.94-7.21a6.83,6.83,0,0,1,8.37-4.82l1.63.43a7.34,7.34,0,0,1,2.18.24,7.18,7.18,0,0,1,5.06,8.79,6.91,6.91,0,0,1-1.08,2.29l1,.26a6.81,6.81,0,0,1,4.14,3.19l.7,1.2a7.17,7.17,0,1,1-1.56,14.09Z"/><path class="cls-18" d="M323.14,166.75l-5.52-1.49a1,1,0,1,0-1.16,1.42,1,1,0,0,0,.81-.13l4.88,1.31-1.3,4.85-23.25-6.25-2.89-5,3.83-14.27a1,1,0,0,0-.18-1.86,1,1,0,0,0-1.23.71,1,1,0,0,0,.13.8l-3.91,14.54a.7.7,0,0,0,.07.51l3.16,5.49a.71.71,0,0,0,.41.31l24.16,6.49a.68.68,0,0,0,.82-.47l1.64-6.13A.66.66,0,0,0,323.14,166.75Z"/><path class="cls-19" d="M319.55,180.12l-24.16-6.49a6.75,6.75,0,0,1-4.15-3.18L288.07,165a6.78,6.78,0,0,1-.67-5.19l3.54-13.18a6.89,6.89,0,0,1,.23-2.16A7.17,7.17,0,1,1,305,148.15a7,7,0,0,1-.89,2l-2.8,10.42.34.59,8.27,2.22a7.18,7.18,0,0,1,8.64-4.6,7,7,0,0,1,2,.89l4.15,1.11a6.85,6.85,0,0,1,4.83,8.38l-1.65,6.13A6.83,6.83,0,0,1,319.55,180.12Z"/><path class="cls-18" d="M206.63,109.11a1,1,0,0,0-.79.13l-2.84-.76a.62.62,0,0,0-.6.14l-9,7.9a.76.76,0,0,0-.2.32l-1.41,5.25-5.23,4.17L179.8,106a.65.65,0,0,0-1.25,0l-7.15,26.64-4.52-1.21,1.46-5.42a1,1,0,1,0-1.39-1.13,1,1,0,0,0,.13.79l-1.63,6a.65.65,0,0,0,.46.8l5.78,1.55a.66.66,0,0,0,.8-.46l6.76-25.18,6.36,19.1a.67.67,0,0,0,.43.42.63.63,0,0,0,.6-.12l6.12-4.89a.63.63,0,0,0,.23-.34l1.41-5.26,8.59-7.54,2.51.67a1,1,0,0,0,.62.51,1,1,0,0,0,.51-1.9Z"/><path class="cls-18" d="M211.06,107.9l-9-2.42a.67.67,0,0,0-.58.13L189,115.89l-5-15.3a.67.67,0,0,0-.45-.43L175.37,98a.65.65,0,0,0-.8.46l-5.9,22a.65.65,0,0,0,.06.49l1.86,3.23-1,3.54a1,1,0,0,0,.19,1.82,1,1,0,0,0,1.2-.69,1,1,0,0,0-.13-.79l1-3.8a.62.62,0,0,0-.06-.5L170,120.48l5.66-21.09,7.22,1.94L188,117.21a.66.66,0,0,0,.44.42.71.71,0,0,0,.6-.12l13-10.68,8,2.16-.7,2.64-3.23,1.86a.59.59,0,0,0-.3.39l-2.62,9.75a1,1,0,0,0-.51.61,1,1,0,0,0,.7,1.21,1,1,0,0,0,1.2-.7,1,1,0,0,0-.13-.79l2.55-9.48,3.22-1.86a.69.69,0,0,0,.31-.4l.94-3.52A.64.64,0,0,0,211.06,107.9Z"/><path class="cls-18" d="M182.79,104.84a1,1,0,0,0-.49-.72l-.25-1.23a.63.63,0,0,0-.47-.5l-4.17-1.12a.65.65,0,0,0-.8.46l-4.47,16.64a1,1,0,0,0-.51.61,1,1,0,0,0,.7,1.21,1,1,0,0,0,1.2-.7.92.92,0,0,0-.13-.78l4.3-16,3.15.84.18.84a.91.91,0,0,0-.19.7,1,1,0,0,0,1.09.86A1,1,0,0,0,182.79,104.84Z"/><path class="cls-18" d="M190.22,120.17a1,1,0,0,0-1.75.55l-.53.42-3.7-11.43a1,1,0,0,0,.09-.79,1,1,0,1,0-1.33,1.19l4,12.32a.63.63,0,0,0,.43.42h0a.62.62,0,0,0,.57-.11l1.27-1a.94.94,0,0,0,.77-.19A1,1,0,0,0,190.22,120.17Z"/><path class="cls-18" d="M201,137.48l2-7.37a.7.7,0,0,0-.05-.47l-2.16-4.1,3.47-12.94a.65.65,0,0,0-.27-.72.66.66,0,0,0-.77.05l-7.12,5.94a1,1,0,0,0-.77.21,1,1,0,1,0,1.61.79l5.53-4.62-3,11.2a.65.65,0,0,0,.06.47l2.15,4.1-1.91,7.12a1,1,0,1,0,1.39,1.13A1,1,0,0,0,201,137.48Z"/><path class="cls-18" d="M209.49,117.42a1,1,0,1,0-1.9-.5,1,1,0,0,0,.13.78l-6.19,23.07-4.49-1.2,2.06-7.67a1,1,0,0,0,.51-.62,1,1,0,0,0-1.9-.51,1,1,0,0,0,.13.79l-2.23,8.3a.66.66,0,0,0,.46.8l5.75,1.54a.66.66,0,0,0,.8-.46L209,118A1,1,0,0,0,209.49,117.42Z"/><path class="cls-18" d="M238.6,135.53a1,1,0,0,0-.81.14l-5-1.35a.67.67,0,0,0-.5.06l-2.89,1.67-7.27-2a.67.67,0,0,0-.82.47l-2.82,10.51-4-1.07,7.24-27,6.6-3.8,7.88,2.11a1,1,0,1,0,1.15-1.42,1,1,0,0,0-.8.14l-8.15-2.19a.65.65,0,0,0-.51.06L220.84,116a.62.62,0,0,0-.31.4L213,144.3a.66.66,0,0,0,.47.82l5.25,1.41a.67.67,0,0,0,.81-.47l2.83-10.51,6.9,1.85a.62.62,0,0,0,.5-.06l2.88-1.66,4.77,1.28a1,1,0,0,0,.63.51,1,1,0,1,0,.52-1.94Z"/><path class="cls-18" d="M248.59,123.71l-3.92-7.17a.64.64,0,0,0-.41-.32l-2.43-.65a.63.63,0,0,0-.52.07l-3.07,1.86-9.3-2.5a.65.65,0,0,0-.51.08L223,118.37a.64.64,0,0,0-.3.4l-.78,2.9a1,1,0,1,0,1.42,1.15,1,1,0,0,0-.13-.8l.71-2.65,5-3,9.3,2.49a.68.68,0,0,0,.52-.07l3.07-1.86,1.88.5,3.66,6.68-2.37,8.79-3.06,1.86a.72.72,0,0,0-.3.4l-3,11.37a1,1,0,0,0-.52.63,1,1,0,1,0,1.94.52,1,1,0,0,0-.13-.81l3-11.11,3.06-1.86a.65.65,0,0,0,.3-.39l2.5-9.31A.6.6,0,0,0,248.59,123.71Z"/><path class="cls-18" d="M242.1,124.77l-2-3.47a.66.66,0,0,0-.41-.32l-9.91-2.66a.65.65,0,0,0-.51.07l-3.59,2.11a.69.69,0,0,0-.31.4l-1,3.84-3.66,2.15a.69.69,0,0,0-.31.4L216.72,141a1,1,0,1,0,1.42,1.15,1,1,0,0,0-.13-.8l3.62-13.47,3.66-2.15a.69.69,0,0,0,.31-.4l1-3.84,3.11-1.83,9.38,2.52,1.69,3-2,7.41L225.23,129a1.06,1.06,0,0,0-.63-.52,1,1,0,0,0-1.23.71,1,1,0,0,0,.71,1.23,1,1,0,0,0,.8-.13l14.24,3.82a.65.65,0,0,0,.81-.47l2.24-8.32A.67.67,0,0,0,242.1,124.77Z"/><path class="cls-18" d="M243.83,130.37l1.57-5.86a.67.67,0,0,0-.06-.5l-2.25-3.9a1,1,0,1,0-1.82.19,1,1,0,0,0,.66.48l2.11,3.65-1.5,5.6a1,1,0,0,0-.51.63,1,1,0,1,0,1.8-.29Z"/><path class="cls-18" d="M229.17,132.7a1,1,0,0,0-.81.14L224,131.68a1,1,0,0,0-.63-.52,1,1,0,1,0-.52,1.93,1,1,0,0,0,.8-.13l4.33,1.17a1,1,0,0,0,.63.51,1,1,0,0,0,.52-1.94Z"/><path class="cls-18" d="M245.33,139.17a1,1,0,0,0-.72-1.17,1,1,0,0,0-1.22.64.93.93,0,0,0,.15.76l-3.2,11.91-4.59-1.23,2.88-10.73a.63.63,0,0,0-.48-.77l-3.25-.88a1,1,0,0,0-1.8,0,.94.94,0,0,0,.52,1.25,1,1,0,0,0,1-.06l2.61.71-2.89,10.72a.65.65,0,0,0,.49.77l5.87,1.58a.64.64,0,0,0,.81-.42l3.36-12.51A.9.9,0,0,0,245.33,139.17Z"/><path class="cls-18" d="M293.68,129.79a.64.64,0,0,0-.47-.49l-7.24-2a.69.69,0,0,0-.6.14l-13.52,11.22-6.6-1.78L269,123.11a.67.67,0,0,0-.47-.82l-6.2-1.67a.67.67,0,0,0-.82.47l-.84,3.14a1,1,0,0,0-.52.63,1,1,0,0,0,.71,1.23,1,1,0,0,0,1.09-1.51l.67-2.5,4.92,1.32-3.72,13.83a.68.68,0,0,0,.48.82l7.57,2a.65.65,0,0,0,.6-.13L286,128.73l5.68,1.53-5.89,5.08a1,1,0,0,0-.78.23,1,1,0,1,0,1.65.78l6.85-5.9A.65.65,0,0,0,293.68,129.79Z"/><path class="cls-18" d="M284.93,163.57l-7.35-19.67,3.82-3a.65.65,0,0,0,.24-.35l1.51-5.64,3.51-2.62a1,1,0,0,0,.79-.17,1,1,0,0,0,.2-1.41,1,1,0,0,0-1.4-.2,1,1,0,0,0-.39.72L282.17,134a.7.7,0,0,0-.25.36L280.41,140l-4,3.16a.67.67,0,0,0-.21.76l7.07,18.91-6-1.6-1.79-5.32a1.06,1.06,0,0,0,.08-.82,1,1,0,0,0-1.27-.62,1,1,0,0,0-.63,1.27,1,1,0,0,0,.56.6l1.9,5.65a.68.68,0,0,0,.46.43l7.58,2a.68.68,0,0,0,.67-.2A.65.65,0,0,0,284.93,163.57Z"/><path class="cls-18" d="M261.21,150.51a1,1,0,1,0-1.94-.52,1,1,0,0,0,.13.81L258,156.05l-4.26-1.15,6.6-24.58,3.44-1.82a.68.68,0,0,0,.34-.42l.47-1.76a1,1,0,0,0,.52-.63,1,1,0,1,0-1.94-.52,1,1,0,0,0,.13.81l-.4,1.48-3.44,1.82a.63.63,0,0,0-.33.42l-6.85,25.5a.65.65,0,0,0,.47.81l5.55,1.5a.68.68,0,0,0,.82-.47l1.58-5.9A1.06,1.06,0,0,0,261.21,150.51Z"/><path class="cls-18" d="M260,142.89l2.61-9.72a1,1,0,0,0,.52-.63,1,1,0,0,0-.71-1.23,1,1,0,0,0-1.1,1.51l-2.61,9.73a1,1,0,0,0-.51.63,1,1,0,1,0,1.93.52A1,1,0,0,0,260,142.89Z"/><path class="cls-18" d="M279.77,158.18a1,1,0,0,0-.58-.58L277,151.83a.68.68,0,0,0-.45-.41l-3.1-.83-1.94-5.75a.66.66,0,0,0-.46-.43l-8.45-2.27a.67.67,0,0,0-.82.47l-.62,2.31-3.47,2a.67.67,0,0,0-.32.4l-1.21,4.52a1,1,0,1,0,1.29.34l1.14-4.24,3.48-2a.69.69,0,0,0,.31-.4l.52-1.94,7.46,2,1.94,5.76a.66.66,0,0,0,.46.43l3.11.83,2.08,5.46a1,1,0,0,0-.05.81,1,1,0,1,0,1.87-.71Z"/><path class="cls-18" d="M279,138.33a1,1,0,0,0-1.41-.17,1,1,0,0,0-.38.72l-4,3.12-8.67-2.33a1,1,0,0,0-.63-.52,1,1,0,1,0-.52,1.94,1,1,0,0,0,.8-.13l9,2.41a.66.66,0,0,0,.58-.11l4.24-3.33a1,1,0,0,0,1-1.6Z"/><path class="cls-18" d="M276.45,148.39a1,1,0,0,0-.6-.56l-.9-2.18a1,1,0,0,0,0-.81,1,1,0,1,0-1.25,1.33l.9,2.17a1,1,0,0,0,0,.82,1,1,0,0,0,1.86-.77Z"/><path class="cls-18" d="M308.56,166.22a1,1,0,0,0-.81.13l-8.14-2.19L297.78,161l4.28-16a.7.7,0,0,0-.06-.51l-1.71-3,2.47-9.19,2.35.64a1,1,0,0,0,.64.52,1,1,0,0,0,.52-1.94,1,1,0,0,0-.81.13l-3-.81a.68.68,0,0,0-.82.47l-2.71,10.1a.66.66,0,0,0,.07.51l1.7,3-4.28,16a.65.65,0,0,0,.06.51l2.11,3.66a.71.71,0,0,0,.41.31l8.41,2.26a1,1,0,0,0,.63.51,1,1,0,1,0,.52-1.93Z"/><path class="cls-18" d="M330.64,138.28,311,133a.66.66,0,0,0-.51.07l-3.19,1.84-2.62-.71a.67.67,0,0,0-.81.47l-1.39,5.17a1,1,0,0,0-.52.63,1,1,0,0,0,1.94.52,1,1,0,0,0-.13-.81l1.21-4.52,2.24.61a.7.7,0,0,0,.51-.07l3.19-1.84,18.75,5-1.26,4.67-21.71-5.84a.68.68,0,0,0-.82.47l-2.32,8.66a.65.65,0,0,0,.47.81l17.75,4.77-1.11,4.12-9.55-2.56-2-3.42a.67.67,0,0,0-.41-.31l-4.08-1.1a1,1,0,1,0-1.15,1.42,1,1,0,0,0,.81-.13l3.81,1,2,3.42a.64.64,0,0,0,.41.31L321,158.51a.65.65,0,0,0,.81-.47l1.46-5.4a.67.67,0,0,0-.47-.82L305,147.05l2-7.37,21.71,5.84a.68.68,0,0,0,.82-.47l1.6-6A.68.68,0,0,0,330.64,138.28Z"/><path class="cls-18" d="M318.57,153.44a1,1,0,0,0-.81.13l-3.84-1a1,1,0,0,0-.63-.52,1,1,0,1,0-.52,1.94,1,1,0,0,0,.8-.13l3.84,1a1.06,1.06,0,0,0,.63.52,1,1,0,0,0,1.23-.71A1,1,0,0,0,318.57,153.44Z"/><path class="cls-18" d="M326.5,139.72a1,1,0,0,0-.8.13l-13.22-3.55a1,1,0,0,0-.63-.52,1,1,0,0,0-.52,1.94,1,1,0,0,0,.81-.13l13.21,3.55a1,1,0,0,0,.63.52,1,1,0,0,0,.52-1.94Z"/><path class="cls-18" d="M318.3,168.83a1,1,0,0,0-.81.13l-3.82-1-2-3.42a.62.62,0,0,0-.4-.31l-9.11-2.45L301.14,160l1.7-6.3,2.36.63a1,1,0,0,0,.63.52,1,1,0,0,0,1.23-.71,1,1,0,0,0-.71-1.23,1,1,0,0,0-.81.14l-3-.81a.66.66,0,0,0-.82.47l-1.93,7.21a.65.65,0,0,0,.06.51l1.32,2.29a.69.69,0,0,0,.4.31l9.11,2.44,2,3.42a.6.6,0,0,0,.4.31l4.08,1.1a1,1,0,1,0,1.16-1.42Z"/><path class="cls-18" d="M323,166.59l-5.53-1.49a1,1,0,0,0-.63-.52,1,1,0,1,0-.52,1.94,1,1,0,0,0,.81-.13L322,167.7l-1.3,4.84-23.25-6.24-2.89-5L298.43,147a1,1,0,0,0,.53-.64,1,1,0,1,0-1.94-.52,1,1,0,0,0,.13.81l-3.91,14.54a.63.63,0,0,0,.07.5l3.16,5.49a.64.64,0,0,0,.41.31L321,174a.67.67,0,0,0,.82-.47l1.64-6.13A.65.65,0,0,0,323,166.59Z"/><path class="cls-17" d="M370.49,89.8l1.1-4.11.91-3.35a4,4,0,0,1,.46-1.08l1.33.36a2.7,2.7,0,0,0,5.22,1.4l1.34.36a4.6,4.6,0,0,1-.14,1.16l-.91,3.36L378.7,92l-1.1,4.11L373.5,95h0l-4.1-1.1,1.1-4.1Zm6.71,1.8a2.7,2.7,0,1,0-3.31,1.91A2.7,2.7,0,0,0,377.2,91.6Z"/><path class="cls-17" d="M384.66,93.6l2-7.46a4.27,4.27,0,0,1,.46-1.07l1.34.35a2.7,2.7,0,1,0,5.22,1.41l1.33.36a3.88,3.88,0,0,1-.14,1.16l-2,7.46a4.26,4.26,0,0,1-5.21,3h0A4.26,4.26,0,0,1,384.66,93.6Zm6.71,1.81a2.7,2.7,0,1,0-3.31,1.91A2.71,2.71,0,0,0,391.37,95.41Z"/><path class="cls-17" d="M399,97.44,401,90a4.07,4.07,0,0,1,.46-1.07l1.33.36a2.71,2.71,0,0,0,5.23,1.4l1.33.36a4.23,4.23,0,0,1-.14,1.16l-2,7.46a4.26,4.26,0,0,1-5.21,3h0A4.26,4.26,0,0,1,399,97.44Zm6.71,1.81a2.7,2.7,0,1,0-3.31,1.91A2.7,2.7,0,0,0,405.67,99.25Z"/><path class="cls-20" d="M137.1,63.32l-9.43,35.1a2.11,2.11,0,0,1-2.58,1.49L97.65,92.54l-3.38.69a.92.92,0,0,1-1-.68,1,1,0,0,1,1-.92c1.32,0,1.67-.19,1.69-.34.05-.33-1.43-.56-1.94-1.72a2.13,2.13,0,0,1-.17-.85l9-33.57a1.72,1.72,0,0,1,.67-1c.81-.53,1.9,0,2.07-.25.08-.14,0-.5-1.19-1.52a.74.74,0,1,1,1-.92c.76.61,1.54,1.22,2.31,1.82l27.8,7.47C135.74,60.78,136.46,61,137.1,63.32Z"/><polygon class="cls-15" points="120.09 95.37 120.79 92.76 118.92 92.26 119.93 88.53 121.79 89.03 122.39 86.79 126.87 88 127.3 87.74 127.81 87.45 128.42 85.21 126.18 84.61 128.58 75.66 130.82 76.26 131.42 74.02 131.09 73.44 130.74 72.84 126.45 71.68 127 69.63 125.14 69.13 126.14 65.4 128 65.9 128.71 63.29 130.11 63.67 130.94 63.89 131.18 64.9 132.01 68.39 132.25 69.44 133.41 69.76 134.86 70.15 135.57 69.74 129.31 93.05 128.97 92.46 127.52 92.07 126.64 91.83 125.93 92.44 122.75 95.18 121.95 95.87 121.05 95.63 120.09 95.37"/><path class="cls-18" d="M110.9,118.8a9.36,9.36,0,1,1,11.47-6.62A9.38,9.38,0,0,1,110.9,118.8Zm3.9-14.55a5.69,5.69,0,1,0,4,7A5.71,5.71,0,0,0,114.8,104.25Z"/><line class="cls-21" x1="240.16" y1="102.13" x2="277.46" y2="112.15"/><rect class="cls-22" x="258.14" y="87.83" width="1.33" height="38.62" transform="translate(88.19 329.29) rotate(-74.96)"/><line class="cls-21" x1="247.35" y1="75.36" x2="284.65" y2="85.38"/><rect class="cls-22" x="265.33" y="61.06" width="1.33" height="38.62" transform="translate(119.37 316.41) rotate(-74.96)"/><line class="cls-21" x1="246.69" y1="77.79" x2="284" y2="87.81"/><rect class="cls-22" x="264.68" y="63.49" width="1.33" height="38.62" transform="translate(116.54 317.58) rotate(-74.96)"/><line class="cls-21" x1="246.04" y1="80.23" x2="283.34" y2="90.25"/><rect class="cls-22" x="264.02" y="65.92" width="1.33" height="38.62" transform="translate(113.7 318.75) rotate(-74.96)"/><line class="cls-21" x1="245.39" y1="82.66" x2="282.69" y2="92.68"/><rect class="cls-22" x="263.37" y="68.36" width="1.33" height="38.62" transform="translate(110.87 319.92) rotate(-74.96)"/><line class="cls-21" x1="244.73" y1="85.09" x2="282.03" y2="95.11"/><rect class="cls-22" x="262.72" y="70.79" width="1.33" height="38.62" transform="translate(108.03 321.09) rotate(-74.96)"/><line class="cls-21" x1="244.08" y1="87.53" x2="281.38" y2="97.55"/><rect class="cls-22" x="262.06" y="73.23" width="1.33" height="38.62" transform="translate(105.2 322.26) rotate(-74.96)"/><line class="cls-21" x1="243.43" y1="89.96" x2="280.73" y2="99.98"/><rect class="cls-22" x="261.41" y="75.66" width="1.33" height="38.62" transform="translate(102.37 323.43) rotate(-74.96)"/><line class="cls-21" x1="242.77" y1="92.39" x2="280.07" y2="102.41"/><rect class="cls-22" x="260.76" y="78.09" width="1.33" height="38.62" transform="translate(99.53 324.6) rotate(-74.96)"/><line class="cls-21" x1="242.12" y1="94.83" x2="279.42" y2="104.85"/><rect class="cls-22" x="260.1" y="80.52" width="1.33" height="38.62" transform="translate(96.7 325.78) rotate(-74.96)"/><line class="cls-21" x1="241.46" y1="97.26" x2="278.77" y2="107.28"/><rect class="cls-22" x="259.45" y="82.96" width="1.33" height="38.62" transform="translate(93.86 326.95) rotate(-74.96)"/><line class="cls-21" x1="240.81" y1="99.69" x2="278.11" y2="109.71"/><rect class="cls-22" x="258.79" y="85.39" width="1.33" height="38.62" transform="translate(91.03 328.12) rotate(-74.96)"/><line class="cls-21" x1="248" y1="72.93" x2="285.3" y2="82.95"/><rect class="cls-22" x="265.98" y="58.62" width="1.33" height="38.62" transform="translate(122.2 315.24) rotate(-74.96)"/><line class="cls-21" x1="272.5" y1="114.91" x2="282.52" y2="77.61"/><rect class="cls-22" x="258.2" y="95.59" width="38.62" height="1.33" transform="translate(112.55 339.3) rotate(-74.96)"/><line class="cls-21" x1="245.73" y1="107.72" x2="255.75" y2="70.42"/><rect class="cls-22" x="231.43" y="88.4" width="38.62" height="1.33" transform="translate(99.67 308.12) rotate(-74.96)"/><line class="cls-21" x1="248.17" y1="108.37" x2="258.19" y2="71.07"/><rect class="cls-22" x="233.87" y="89.06" width="38.62" height="1.33" transform="translate(100.84 310.95) rotate(-74.96)"/><line class="cls-21" x1="250.6" y1="109.03" x2="260.62" y2="71.73"/><rect class="cls-22" x="236.3" y="89.71" width="38.62" height="1.33" transform="translate(102.01 313.79) rotate(-74.96)"/><line class="cls-21" x1="253.03" y1="109.68" x2="263.05" y2="72.38"/><rect class="cls-22" x="238.73" y="90.36" width="38.62" height="1.33" transform="matrix(0.26, -0.97, 0.97, 0.26, 103.18, 316.62)"/><line class="cls-21" x1="255.47" y1="110.34" x2="265.49" y2="73.03"/><rect class="cls-22" x="241.16" y="91.02" width="38.62" height="1.33" transform="translate(104.35 319.46) rotate(-74.96)"/><line class="cls-21" x1="257.9" y1="110.99" x2="267.92" y2="73.69"/><rect class="cls-22" x="243.6" y="91.67" width="38.62" height="1.33" transform="translate(105.53 322.29) rotate(-74.96)"/><line class="cls-21" x1="260.33" y1="111.64" x2="270.35" y2="74.34"/><rect class="cls-22" x="246.03" y="92.33" width="38.62" height="1.33" transform="translate(106.7 325.13) rotate(-74.96)"/><line class="cls-21" x1="262.77" y1="112.3" x2="272.79" y2="74.99"/><rect class="cls-22" x="248.47" y="92.98" width="38.62" height="1.33" transform="translate(107.87 327.96) rotate(-74.96)"/><line class="cls-21" x1="265.2" y1="112.95" x2="275.22" y2="75.65"/><rect class="cls-22" x="250.9" y="93.63" width="38.62" height="1.33" transform="translate(109.04 330.79) rotate(-74.96)"/><line class="cls-21" x1="267.63" y1="113.6" x2="277.65" y2="76.3"/><rect class="cls-22" x="253.33" y="94.29" width="38.62" height="1.33" transform="translate(110.21 333.63) rotate(-74.96)"/><line class="cls-21" x1="270.07" y1="114.26" x2="280.09" y2="76.96"/><rect class="cls-22" x="255.76" y="94.94" width="38.62" height="1.33" transform="translate(111.38 336.46) rotate(-74.96)"/><line class="cls-21" x1="243.3" y1="107.07" x2="253.32" y2="69.76"/><rect class="cls-22" x="229" y="87.75" width="38.62" height="1.33" transform="translate(98.5 305.29) rotate(-74.96)"/><line class="cls-21" x1="200.05" y1="91.31" x2="237.35" y2="101.33"/><rect class="cls-22" x="218.03" y="77" width="1.33" height="38.62" transform="translate(68.94 282.54) rotate(-74.96)"/><line class="cls-21" x1="207.24" y1="64.53" x2="244.54" y2="74.55"/><rect class="cls-22" x="225.22" y="50.23" width="1.33" height="38.62" transform="translate(100.12 269.66) rotate(-74.96)"/><line class="cls-21" x1="206.58" y1="66.97" x2="243.89" y2="76.99"/><rect class="cls-22" x="224.57" y="52.67" width="1.33" height="38.62" transform="translate(97.29 270.83) rotate(-74.96)"/><line class="cls-21" x1="205.93" y1="69.4" x2="243.23" y2="79.42"/><rect class="cls-22" x="223.91" y="55.1" width="1.33" height="38.62" transform="translate(94.45 272) rotate(-74.96)"/><line class="cls-21" x1="205.28" y1="71.84" x2="242.58" y2="81.86"/><rect class="cls-22" x="223.26" y="57.53" width="1.33" height="38.62" transform="matrix(0.26, -0.97, 0.97, 0.26, 91.62, 273.17)"/><line class="cls-21" x1="204.62" y1="74.27" x2="241.92" y2="84.29"/><rect class="cls-22" x="222.61" y="59.97" width="1.33" height="38.62" transform="translate(88.78 274.34) rotate(-74.96)"/><line class="cls-21" x1="203.97" y1="76.7" x2="241.27" y2="86.72"/><rect class="cls-22" x="221.95" y="62.4" width="1.33" height="38.62" transform="translate(85.95 275.51) rotate(-74.96)"/><line class="cls-21" x1="203.31" y1="79.14" x2="240.62" y2="89.16"/><rect class="cls-22" x="221.3" y="64.83" width="1.33" height="38.62" transform="translate(83.12 276.68) rotate(-74.96)"/><line class="cls-21" x1="202.66" y1="81.57" x2="239.96" y2="91.59"/><rect class="cls-22" x="220.65" y="67.27" width="1.33" height="38.62" transform="translate(80.28 277.85) rotate(-74.96)"/><line class="cls-21" x1="202.01" y1="84" x2="239.31" y2="94.02"/><rect class="cls-22" x="219.99" y="69.7" width="1.33" height="38.62" transform="translate(77.45 279.02) rotate(-74.96)"/><line class="cls-21" x1="201.35" y1="86.44" x2="238.66" y2="96.46"/><rect class="cls-22" x="219.34" y="72.14" width="1.33" height="38.62" transform="matrix(0.26, -0.97, 0.97, 0.26, 74.61, 280.19)"/><line class="cls-21" x1="200.7" y1="88.87" x2="238" y2="98.89"/><rect class="cls-22" x="218.68" y="74.57" width="1.33" height="38.62" transform="translate(71.78 281.37) rotate(-74.96)"/><line class="cls-21" x1="207.89" y1="62.1" x2="245.19" y2="72.12"/><rect class="cls-22" x="225.87" y="47.8" width="1.33" height="38.62" transform="translate(102.95 268.49) rotate(-74.96)"/><line class="cls-21" x1="232.39" y1="104.09" x2="242.41" y2="66.79"/><rect class="cls-22" x="218.09" y="84.77" width="38.62" height="1.33" transform="translate(93.3 292.54) rotate(-74.96)"/><line class="cls-21" x1="205.62" y1="96.9" x2="215.64" y2="59.59"/><rect class="cls-22" x="191.32" y="77.58" width="38.62" height="1.33" transform="matrix(0.26, -0.97, 0.97, 0.26, 80.42, 261.36)"/><line class="cls-21" x1="208.05" y1="97.55" x2="218.07" y2="60.25"/><rect class="cls-22" x="193.75" y="78.23" width="38.62" height="1.33" transform="translate(81.59 264.2) rotate(-74.96)"/><line class="cls-21" x1="210.49" y1="98.2" x2="220.51" y2="60.9"/><rect class="cls-22" x="196.19" y="78.89" width="38.62" height="1.33" transform="translate(82.76 267.03) rotate(-74.96)"/><line class="cls-21" x1="212.92" y1="98.86" x2="222.94" y2="61.56"/><rect class="cls-22" x="198.62" y="79.54" width="38.62" height="1.33" transform="translate(83.93 269.87) rotate(-74.96)"/><line class="cls-21" x1="215.35" y1="99.51" x2="225.37" y2="62.21"/><rect class="cls-22" x="201.05" y="80.19" width="38.62" height="1.33" transform="translate(85.1 272.7) rotate(-74.96)"/><line class="cls-21" x1="217.79" y1="100.16" x2="227.81" y2="62.86"/><rect class="cls-22" x="203.48" y="80.85" width="38.62" height="1.33" transform="translate(86.27 275.53) rotate(-74.96)"/><line class="cls-21" x1="220.22" y1="100.82" x2="230.24" y2="63.52"/><rect class="cls-22" x="205.92" y="81.5" width="38.62" height="1.33" transform="translate(87.44 278.37) rotate(-74.96)"/><line class="cls-21" x1="222.65" y1="101.47" x2="232.68" y2="64.17"/><rect class="cls-22" x="208.35" y="82.15" width="38.62" height="1.33" transform="translate(88.61 281.2) rotate(-74.96)"/><line class="cls-21" x1="225.09" y1="102.13" x2="235.11" y2="64.82"/><rect class="cls-22" x="210.79" y="82.81" width="38.62" height="1.33" transform="translate(89.79 284.04) rotate(-74.96)"/><line class="cls-21" x1="227.52" y1="102.78" x2="237.54" y2="65.48"/><rect class="cls-22" x="213.22" y="83.46" width="38.62" height="1.33" transform="translate(90.96 286.87) rotate(-74.96)"/><line class="cls-21" x1="229.95" y1="103.43" x2="239.97" y2="66.13"/><rect class="cls-22" x="215.65" y="84.12" width="38.62" height="1.33" transform="translate(92.13 289.71) rotate(-74.96)"/><line class="cls-21" x1="203.19" y1="96.24" x2="213.21" y2="58.94"/><rect class="cls-22" x="188.88" y="76.92" width="38.62" height="1.33" transform="matrix(0.26, -0.97, 0.97, 0.26, 79.25, 258.53)"/><line class="cls-21" x1="280.16" y1="112.4" x2="317.46" y2="122.42"/><rect class="cls-22" x="298.14" y="98.1" width="1.33" height="38.62" transform="translate(107.9 375.53) rotate(-74.96)"/><line class="cls-21" x1="287.35" y1="85.63" x2="324.65" y2="95.65"/><rect class="cls-22" x="305.33" y="71.33" width="1.33" height="38.62" transform="translate(139.07 362.65) rotate(-74.96)"/><line class="cls-21" x1="286.7" y1="88.07" x2="324" y2="98.09"/><rect class="cls-22" x="304.68" y="73.77" width="1.33" height="38.62" transform="matrix(0.26, -0.97, 0.97, 0.26, 136.24, 363.82)"/><line class="cls-21" x1="286.04" y1="90.5" x2="323.34" y2="100.52"/><rect class="cls-22" x="304.03" y="76.2" width="1.33" height="38.62" transform="translate(133.4 364.99) rotate(-74.96)"/><line class="cls-21" x1="285.39" y1="92.93" x2="322.69" y2="102.95"/><rect class="cls-22" x="303.37" y="78.63" width="1.33" height="38.62" transform="translate(130.57 366.16) rotate(-74.96)"/><line class="cls-21" x1="284.73" y1="95.37" x2="322.04" y2="105.39"/><rect class="cls-22" x="302.72" y="81.06" width="1.33" height="38.62" transform="translate(127.74 367.33) rotate(-74.96)"/><line class="cls-21" x1="284.08" y1="97.8" x2="321.38" y2="107.82"/><rect class="cls-22" x="302.06" y="83.5" width="1.33" height="38.62" transform="translate(124.9 368.5) rotate(-74.96)"/><line class="cls-21" x1="283.43" y1="100.23" x2="320.73" y2="110.26"/><rect class="cls-22" x="301.41" y="85.93" width="1.33" height="38.62" transform="translate(122.07 369.68) rotate(-74.96)"/><line class="cls-21" x1="282.77" y1="102.67" x2="320.07" y2="112.69"/><rect class="cls-22" x="300.76" y="88.37" width="1.33" height="38.62" transform="translate(119.23 370.85) rotate(-74.96)"/><line class="cls-21" x1="282.12" y1="105.1" x2="319.42" y2="115.12"/><rect class="cls-22" x="300.1" y="90.8" width="1.33" height="38.62" transform="translate(116.4 372.02) rotate(-74.96)"/><line class="cls-21" x1="281.47" y1="107.53" x2="318.77" y2="117.55"/><rect class="cls-22" x="299.45" y="93.23" width="1.33" height="38.62" transform="translate(113.57 373.19) rotate(-74.96)"/><line class="cls-21" x1="280.81" y1="109.97" x2="318.11" y2="119.99"/><rect class="cls-22" x="298.8" y="95.67" width="1.33" height="38.62" transform="translate(110.73 374.36) rotate(-74.96)"/><line class="cls-21" x1="288" y1="83.2" x2="325.3" y2="93.22"/><rect class="cls-22" x="305.99" y="68.9" width="1.33" height="38.62" transform="translate(141.91 361.48) rotate(-74.96)"/><line class="cls-21" x1="312.5" y1="125.19" x2="322.52" y2="87.88"/><rect class="cls-22" x="298.2" y="105.87" width="38.62" height="1.33" transform="translate(132.25 385.53) rotate(-74.96)"/><line class="cls-21" x1="285.73" y1="118" x2="295.75" y2="80.69"/><rect class="cls-22" x="271.43" y="98.68" width="38.62" height="1.33" transform="translate(119.37 354.36) rotate(-74.96)"/><line class="cls-21" x1="288.17" y1="118.65" x2="298.19" y2="81.35"/><rect class="cls-22" x="273.86" y="99.33" width="38.62" height="1.33" transform="translate(120.54 357.19) rotate(-74.96)"/><line class="cls-21" x1="290.6" y1="119.3" x2="300.62" y2="82"/><rect class="cls-22" x="276.3" y="99.99" width="38.62" height="1.33" transform="translate(121.71 360.03) rotate(-74.96)"/><line class="cls-21" x1="293.03" y1="119.96" x2="303.05" y2="82.66"/><rect class="cls-22" x="278.73" y="100.64" width="38.62" height="1.33" transform="translate(122.88 362.86) rotate(-74.96)"/><line class="cls-21" x1="295.47" y1="120.61" x2="305.49" y2="83.31"/><rect class="cls-22" x="281.17" y="101.29" width="38.62" height="1.33" transform="translate(124.05 365.7) rotate(-74.96)"/><line class="cls-21" x1="297.9" y1="121.27" x2="307.92" y2="83.96"/><rect class="cls-22" x="283.6" y="101.95" width="38.62" height="1.33" transform="translate(125.22 368.53) rotate(-74.96)"/><line class="cls-21" x1="300.33" y1="121.92" x2="310.35" y2="84.62"/><rect class="cls-22" x="286.03" y="102.6" width="38.62" height="1.33" transform="matrix(0.26, -0.97, 0.97, 0.26, 126.39, 371.36)"/><line class="cls-21" x1="302.77" y1="122.57" x2="312.79" y2="85.27"/><rect class="cls-22" x="288.46" y="103.25" width="38.62" height="1.33" transform="translate(127.57 374.2) rotate(-74.96)"/><line class="cls-21" x1="305.2" y1="123.23" x2="315.22" y2="85.92"/><rect class="cls-22" x="290.9" y="103.91" width="38.62" height="1.33" transform="translate(128.74 377.03) rotate(-74.96)"/><line class="cls-21" x1="307.63" y1="123.88" x2="317.66" y2="86.58"/><rect class="cls-22" x="293.33" y="104.56" width="38.62" height="1.33" transform="translate(129.91 379.87) rotate(-74.96)"/><line class="cls-21" x1="310.07" y1="124.53" x2="320.09" y2="87.23"/><rect class="cls-22" x="295.77" y="105.22" width="38.62" height="1.33" transform="translate(131.08 382.7) rotate(-74.96)"/><line class="cls-21" x1="283.3" y1="117.34" x2="293.32" y2="80.04"/><rect class="cls-22" x="269" y="98.03" width="38.62" height="1.33" transform="matrix(0.26, -0.97, 0.97, 0.26, 118.2, 351.53)"/><line class="cls-21" x1="320.03" y1="123.06" x2="357.34" y2="133.08"/><rect class="cls-22" x="338.02" y="108.76" width="1.33" height="38.62" transform="translate(127.13 421.93) rotate(-74.96)"/><line class="cls-21" x1="327.22" y1="96.29" x2="364.53" y2="106.31"/><rect class="cls-22" x="345.21" y="81.99" width="1.33" height="38.62" transform="matrix(0.26, -0.97, 0.97, 0.26, 158.31, 409.05)"/><line class="cls-21" x1="326.57" y1="98.72" x2="363.87" y2="108.75"/><rect class="cls-22" x="344.55" y="84.42" width="1.33" height="38.62" transform="translate(155.48 410.22) rotate(-74.96)"/><line class="cls-21" x1="325.92" y1="101.16" x2="363.22" y2="111.18"/><rect class="cls-22" x="343.9" y="86.86" width="1.33" height="38.62" transform="translate(152.64 411.39) rotate(-74.96)"/><line class="cls-21" x1="325.26" y1="103.59" x2="362.56" y2="113.61"/><rect class="cls-22" x="343.25" y="89.29" width="1.33" height="38.62" transform="translate(149.81 412.57) rotate(-74.96)"/><line class="cls-21" x1="324.61" y1="106.02" x2="361.91" y2="116.04"/><rect class="cls-22" x="342.59" y="91.72" width="1.33" height="38.62" transform="translate(146.97 413.73) rotate(-74.96)"/><line class="cls-21" x1="323.96" y1="108.46" x2="361.26" y2="118.48"/><rect class="cls-22" x="341.94" y="94.16" width="1.33" height="38.62" transform="translate(144.14 414.91) rotate(-74.96)"/><line class="cls-21" x1="323.3" y1="110.89" x2="360.6" y2="120.91"/><rect class="cls-22" x="341.29" y="96.59" width="1.33" height="38.62" transform="matrix(0.26, -0.97, 0.97, 0.26, 141.3, 416.08)"/><line class="cls-21" x1="322.65" y1="113.33" x2="359.95" y2="123.35"/><rect class="cls-22" x="340.63" y="99.02" width="1.33" height="38.62" transform="translate(138.47 417.25) rotate(-74.96)"/><line class="cls-21" x1="321.99" y1="115.76" x2="359.3" y2="125.78"/><rect class="cls-22" x="339.98" y="101.46" width="1.33" height="38.62" transform="translate(135.63 418.42) rotate(-74.96)"/><line class="cls-21" x1="321.34" y1="118.19" x2="358.64" y2="128.21"/><rect class="cls-22" x="339.33" y="103.89" width="1.33" height="38.62" transform="translate(132.8 419.59) rotate(-74.96)"/><line class="cls-21" x1="320.69" y1="120.62" x2="357.99" y2="130.64"/><rect class="cls-22" x="338.67" y="106.32" width="1.33" height="38.62" transform="translate(129.97 420.76) rotate(-74.96)"/><line class="cls-21" x1="327.88" y1="93.86" x2="365.18" y2="103.88"/><rect class="cls-22" x="345.86" y="79.55" width="1.33" height="38.62" transform="translate(161.15 407.88) rotate(-74.96)"/><line class="cls-21" x1="352.06" y1="135.76" x2="362.08" y2="98.46"/><rect class="cls-22" x="337.75" y="116.44" width="38.62" height="1.33" transform="translate(151.33 431.57) rotate(-74.96)"/><line class="cls-21" x1="325.29" y1="128.57" x2="335.31" y2="91.26"/><rect class="cls-22" x="310.98" y="109.25" width="38.62" height="1.33" transform="translate(138.45 400.39) rotate(-74.96)"/><line class="cls-21" x1="327.72" y1="129.22" x2="337.74" y2="91.92"/><rect class="cls-22" x="313.42" y="109.9" width="38.62" height="1.33" transform="translate(139.62 403.22) rotate(-74.96)"/><line class="cls-21" x1="330.15" y1="129.87" x2="340.17" y2="92.57"/><rect class="cls-22" x="315.85" y="110.56" width="38.62" height="1.33" transform="translate(140.8 406.06) rotate(-74.96)"/><line class="cls-21" x1="332.59" y1="130.53" x2="342.61" y2="93.23"/><rect class="cls-22" x="318.29" y="111.21" width="38.62" height="1.33" transform="translate(141.97 408.89) rotate(-74.96)"/><line class="cls-21" x1="335.02" y1="131.18" x2="345.04" y2="93.88"/><rect class="cls-22" x="320.72" y="111.86" width="38.62" height="1.33" transform="translate(143.14 411.72) rotate(-74.96)"/><line class="cls-21" x1="337.46" y1="131.84" x2="347.48" y2="94.53"/><rect class="cls-22" x="323.15" y="112.52" width="38.62" height="1.33" transform="translate(144.31 414.56) rotate(-74.96)"/><line class="cls-21" x1="339.89" y1="132.49" x2="349.91" y2="95.19"/><rect class="cls-22" x="325.58" y="113.17" width="38.62" height="1.33" transform="translate(145.48 417.39) rotate(-74.96)"/><line class="cls-21" x1="342.32" y1="133.14" x2="352.34" y2="95.84"/><rect class="cls-22" x="328.02" y="113.82" width="38.62" height="1.33" transform="translate(146.65 420.23) rotate(-74.96)"/><line class="cls-21" x1="344.75" y1="133.8" x2="354.77" y2="96.49"/><rect class="cls-22" x="330.45" y="114.48" width="38.62" height="1.33" transform="translate(147.82 423.06) rotate(-74.96)"/><line class="cls-21" x1="347.19" y1="134.45" x2="357.21" y2="97.15"/><rect class="cls-22" x="332.89" y="115.13" width="38.62" height="1.33" transform="translate(148.99 425.9) rotate(-74.96)"/><line class="cls-21" x1="349.62" y1="135.1" x2="359.64" y2="97.8"/><rect class="cls-22" x="335.32" y="115.79" width="38.62" height="1.33" transform="translate(150.16 428.73) rotate(-74.96)"/><line class="cls-21" x1="322.85" y1="127.91" x2="332.87" y2="90.61"/><rect class="cls-22" x="308.55" y="108.6" width="38.62" height="1.33" transform="translate(137.28 397.55) rotate(-74.96)"/><line class="cls-21" x1="159.74" y1="80.41" x2="197.04" y2="90.43"/><rect class="cls-22" x="177.72" y="66.11" width="1.33" height="38.62" transform="translate(49.61 235.54) rotate(-74.96)"/><line class="cls-21" x1="166.93" y1="53.65" x2="204.23" y2="63.67"/><rect class="cls-22" x="184.91" y="39.35" width="1.33" height="38.62" transform="matrix(0.26, -0.97, 0.97, 0.26, 80.78, 222.66)"/><line class="cls-21" x1="166.27" y1="56.08" x2="203.57" y2="66.1"/><rect class="cls-22" x="184.26" y="41.78" width="1.33" height="38.62" transform="translate(77.95 223.83) rotate(-74.96)"/><line class="cls-21" x1="165.62" y1="58.51" x2="202.92" y2="68.54"/><rect class="cls-22" x="183.6" y="44.21" width="1.33" height="38.62" transform="translate(75.11 225.01) rotate(-74.96)"/><line class="cls-21" x1="164.97" y1="60.95" x2="202.27" y2="70.97"/><rect class="cls-22" x="182.95" y="46.64" width="1.33" height="38.62" transform="translate(72.28 226.17) rotate(-74.96)"/><line class="cls-21" x1="164.31" y1="63.38" x2="201.61" y2="73.4"/><rect class="cls-22" x="182.3" y="49.08" width="1.33" height="38.62" transform="translate(69.45 227.35) rotate(-74.96)"/><line class="cls-21" x1="163.66" y1="65.81" x2="200.96" y2="75.83"/><rect class="cls-22" x="181.64" y="51.51" width="1.33" height="38.62" transform="translate(66.61 228.52) rotate(-74.96)"/><line class="cls-21" x1="163" y1="68.25" x2="200.31" y2="78.27"/><rect class="cls-22" x="180.99" y="53.95" width="1.33" height="38.62" transform="translate(63.78 229.69) rotate(-74.96)"/><line class="cls-21" x1="162.35" y1="70.68" x2="199.65" y2="80.7"/><rect class="cls-22" x="180.33" y="56.38" width="1.33" height="38.62" transform="translate(60.94 230.86) rotate(-74.96)"/><line class="cls-21" x1="161.7" y1="73.12" x2="199" y2="83.14"/><rect class="cls-22" x="179.68" y="58.81" width="1.33" height="38.62" transform="translate(58.11 232.03) rotate(-74.96)"/><line class="cls-21" x1="161.04" y1="75.55" x2="198.35" y2="85.57"/><rect class="cls-22" x="179.03" y="61.24" width="1.33" height="38.62" transform="translate(55.28 233.2) rotate(-74.96)"/><line class="cls-21" x1="160.39" y1="77.98" x2="197.69" y2="88"/><rect class="cls-22" x="178.37" y="63.68" width="1.33" height="38.62" transform="translate(52.44 234.37) rotate(-74.96)"/><line class="cls-21" x1="167.58" y1="51.21" x2="204.88" y2="61.23"/><rect class="cls-22" x="185.56" y="36.91" width="1.33" height="38.62" transform="translate(83.62 221.49) rotate(-74.96)"/><line class="cls-21" x1="192.08" y1="93.2" x2="202.1" y2="55.9"/><rect class="cls-22" x="177.78" y="73.88" width="38.62" height="1.33" transform="translate(73.96 245.55) rotate(-74.96)"/><line class="cls-21" x1="165.31" y1="86.01" x2="175.33" y2="48.71"/><rect class="cls-22" x="151.01" y="66.69" width="38.62" height="1.33" transform="translate(61.08 214.37) rotate(-74.96)"/><line class="cls-21" x1="167.74" y1="86.66" x2="177.76" y2="49.36"/><rect class="cls-22" x="153.44" y="67.35" width="38.62" height="1.33" transform="translate(62.25 217.21) rotate(-74.96)"/><line class="cls-21" x1="170.18" y1="87.32" x2="180.2" y2="50.01"/><rect class="cls-22" x="155.88" y="68" width="38.62" height="1.33" transform="translate(63.42 220.04) rotate(-74.96)"/><line class="cls-21" x1="172.61" y1="87.97" x2="182.63" y2="50.67"/><rect class="cls-22" x="158.31" y="68.65" width="38.62" height="1.33" transform="translate(64.59 222.88) rotate(-74.96)"/><line class="cls-21" x1="175.05" y1="88.62" x2="185.07" y2="51.32"/><rect class="cls-22" x="160.74" y="69.31" width="38.62" height="1.33" transform="translate(65.77 225.71) rotate(-74.96)"/><line class="cls-21" x1="177.48" y1="89.28" x2="187.5" y2="51.98"/><rect class="cls-22" x="163.17" y="69.96" width="38.62" height="1.33" transform="translate(66.93 228.54) rotate(-74.96)"/><line class="cls-21" x1="179.91" y1="89.93" x2="189.93" y2="52.63"/><rect class="cls-22" x="165.61" y="70.61" width="38.62" height="1.33" transform="translate(68.11 231.38) rotate(-74.96)"/><line class="cls-21" x1="182.34" y1="90.59" x2="192.36" y2="53.28"/><rect class="cls-22" x="168.04" y="71.27" width="38.62" height="1.33" transform="translate(69.28 234.21) rotate(-74.96)"/><line class="cls-21" x1="184.78" y1="91.24" x2="194.8" y2="53.94"/><rect class="cls-22" x="170.48" y="71.92" width="38.62" height="1.33" transform="translate(70.45 237.05) rotate(-74.96)"/><line class="cls-21" x1="187.21" y1="91.89" x2="197.23" y2="54.59"/><rect class="cls-22" x="172.91" y="72.58" width="38.62" height="1.33" transform="translate(71.62 239.88) rotate(-74.96)"/><line class="cls-21" x1="189.65" y1="92.55" x2="199.67" y2="55.24"/><rect class="cls-22" x="175.34" y="73.23" width="38.62" height="1.33" transform="translate(72.79 242.72) rotate(-74.96)"/><line class="cls-21" x1="162.88" y1="85.36" x2="172.9" y2="48.05"/><rect class="cls-22" x="148.57" y="66.04" width="38.62" height="1.33" transform="translate(59.91 211.54) rotate(-74.96)"/><path class="cls-18" d="M128.08,54.82a9.36,9.36,0,1,1,11.47-6.61A9.36,9.36,0,0,1,128.08,54.82ZM132,40.28a5.7,5.7,0,1,0,4,7A5.7,5.7,0,0,0,132,40.28Z"/><path class="cls-18" d="M375.07,189.7a9.37,9.37,0,1,1,11.48-6.62A9.38,9.38,0,0,1,375.07,189.7ZM379,175.15a5.69,5.69,0,1,0,4,7A5.7,5.7,0,0,0,379,175.15Z"/><path class="cls-18" d="M392.26,125.72a9.37,9.37,0,1,1,11.47-6.61A9.36,9.36,0,0,1,392.26,125.72Zm3.91-14.54a5.7,5.7,0,1,0,4,7A5.7,5.7,0,0,0,396.17,111.18Z"/><rect class="cls-15" x="245.04" y="74.43" width="35.92" height="35.92" transform="translate(105.54 322.41) rotate(-74.96)"/><rect class="cls-15" x="204.93" y="63.6" width="35.92" height="35.92" transform="translate(86.29 275.66) rotate(-74.96)"/><rect class="cls-15" x="285.04" y="84.7" width="35.92" height="35.92" transform="translate(125.24 368.65) rotate(-74.96)"/><rect class="cls-15" x="324.59" y="95.27" width="35.92" height="35.92" transform="matrix(0.26, -0.97, 0.97, 0.26, 144.33, 414.68)"/><path class="cls-23" d="M189,66.86a6,6,0,0,0-2.16-2,9,9,0,0,0-2.18-.87c-1-.31-2.41-.7-4.1-1.1L176,79.49l3.84,1q.84-3,1.69-6a9.28,9.28,0,0,0,1.92.23,6.58,6.58,0,0,0,3.94-.93,5,5,0,0,0,1.58-7Zm-3.37,3.07a1.87,1.87,0,0,1-.48.72,2.49,2.49,0,0,1-2.56,0l.82-3c1.27.29,2.17,1,2.26,1.6A1.73,1.73,0,0,1,185.62,69.93Z"/><path class="cls-20" d="M269,86.55a6,6,0,0,0-2.16-2,8.57,8.57,0,0,0-2.18-.87c-1-.32-2.42-.71-4.11-1.11L256,99.18l3.84,1c.56-2,1.13-4,1.69-6a9.38,9.38,0,0,0,1.92.23,6.58,6.58,0,0,0,3.94-.93,5.13,5.13,0,0,0,2.22-3A5.27,5.27,0,0,0,269,86.55Zm-3.38,3.07a1.87,1.87,0,0,1-.48.73,2.51,2.51,0,0,1-2.56,0l.82-3c1.27.29,2.17,1,2.26,1.6A1.7,1.7,0,0,1,265.62,89.62Z"/><path class="cls-20" d="M222.81,72.32l3.71,1L222,90.13l-3.71-1Z"/><path class="cls-20" d="M299.5,92.85,295,109.67l9.89,2.8,1-3.85-6.1-1.63.89-3.31,6.23,1.67,1-3.84-6.23-1.67.5-1.85,6.23,1.67,1.06-4Z"/><path class="cls-20" d="M346.44,123.81c-.86-2.59-1.73-5.19-2.59-7.79a6.06,6.06,0,0,0,2.48-1,5.31,5.31,0,0,0,2.22-3,5.21,5.21,0,0,0-.63-4,6,6,0,0,0-2.17-2,9.41,9.41,0,0,0-2.2-.87c-1-.32-2.43-.72-4.14-1.11l-4.56,16.72,3.87,1c.41-1.47.81-3,1.22-4.43.58,1.72,1.15,3.44,1.74,5.15Zm-4.16-15c1.28.3,2.18,1,2.28,1.62a1.67,1.67,0,0,1-.05.7,1.74,1.74,0,0,1-.48.73,2.52,2.52,0,0,1-2.58,0C341.73,110.87,342,109.84,342.28,108.82Z"/><rect class="cls-15" x="164.62" y="52.71" width="35.92" height="35.92" transform="translate(66.96 228.66) rotate(-74.96)"/><path class="cls-20" d="M188.05,65a5.86,5.86,0,0,0-2.15-2,9,9,0,0,0-2.18-.87c-1-.31-2.42-.71-4.11-1.1l-4.53,16.6,3.84,1q.84-3,1.69-6a8.55,8.55,0,0,0,1.92.24,6.65,6.65,0,0,0,3.94-.93,5,5,0,0,0,1.58-7ZM184.68,68a1.87,1.87,0,0,1-.48.73,2.51,2.51,0,0,1-2.56,0l.82-3c1.27.29,2.17,1,2.26,1.6A1.7,1.7,0,0,1,184.68,68Z"/><rect class="cls-4" x="264.68" y="272.42" width="121.87" height="35.16" transform="translate(-66.94 479.79) rotate(-67.49)"/><path class="cls-1" d="M318.53,353h0l-32.47-13.46s0,0,0,0L332.69,227h0l32.48,13.45a0,0,0,0,1,0,0L318.54,353h0Zm-32.46-13.48L318.52,353l46.65-112.56L332.72,227Z"/><polygon class="cls-1" points="325.97 354.04 318.53 353.02 365.19 240.43 368.57 247.94 325.97 354.04"/><path class="cls-1" d="M326,354.05h0l-7.44-1h0s0,0,0,0l46.65-112.59h0l3.39,7.51v0L326,354ZM318.55,353l7.41,1,42.6-106.08-3.37-7.47Z"/><path class="cls-9" d="M345.22,232.41l8.64,3.5-11.94,28.85,11.27,5-3.09,7.75-11.37-5-31.4,75.87-9.25-3.78L330,268.61l-12.19-5.38c1-2.58,2.08-5.15,3.13-7.73l12.3,5.42Q339.23,246.67,345.22,232.41Z"/><path class="cls-1" d="M307.33,348.35h0l-9.26-3.77h0L330,268.62l-12.18-5.38s0,0,0,0l3.14-7.73h0l12.28,5.41,12-28.49s0,0,0,0l8.63,3.5h0v0l-11.93,28.83,11.25,5v0l-3.09,7.76h0l-11.35-5-31.39,75.85S307.34,348.35,307.33,348.35Zm-9.23-3.79,9.23,3.76,31.39-75.86h0l11.35,5,3.08-7.73-11.26-5a0,0,0,0,1,0,0l11.93-28.83-8.61-3.49-12,28.5h0L321,255.52l-3.12,7.7L330,268.6s0,0,0,0Z"/><rect class="cls-4" x="67.08" y="279.44" width="121.87" height="35.16" transform="translate(325.99 41.26) rotate(61.06)"/><path class="cls-1" d="M142.12,358.86h0l-59-106.65a0,0,0,0,1,0,0l30.76-17h0l59,106.65a0,0,0,0,1,0,0l-30.77,17ZM83.17,252.2l59,106.63,30.74-17-59-106.62Z"/><polygon class="cls-1" points="121.19 233.34 113.91 235.19 172.89 341.84 175.41 333.99 121.19 233.34"/><path class="cls-1" d="M172.89,341.85h0l-59-106.65h0s0,0,0,0l7.27-1.85s0,0,0,0L175.43,334h0l-2.53,7.84s0,0,0,0Zm-59-106.65,58.95,106.6L175.4,334,121.18,233.36Z"/><path class="cls-9" d="M103.31,241.09l40.37,73.1L154.32,308l4,7.36-10.55,6.15,14.42,26.11L154,352l-14.43-25.77-11.71,6.82-4-7.33q5.82-3.37,11.62-6.77Q115,282.44,94.54,245.88Z"/><path class="cls-1" d="M154,352.06h0l-14.41-25.76-11.7,6.81h0l-4-7.33s0,0,0,0l11.6-6.77-40.91-73.1h0l8.77-4.78a0,0,0,0,1,0,0l40.37,73.08L154.32,308s0,0,0,0a0,0,0,0,0,0,0l3.94,7.36s0,0,0,0l-10.53,6.15,14.41,26.09h0l-8.2,4.44Zm-14.43-25.81h0L154,352l8.17-4.43L147.7,321.5s0,0,0,0l10.53-6.14L154.32,308l-10.63,6.2h0L103.3,241.11l-8.74,4.77,40.9,73.1s0,0,0,0l-11.61,6.77,4,7.3,11.7-6.82Z"/><path class="cls-1" d="M142.12,358.86h0s0,0,0,0l30.75-17L175.4,334,121.17,233.35a0,0,0,0,1,0,0s0,0,0,0L175.43,334h0l-2.53,7.84h0l-30.77,17Z"/><text/><text class="cls-24" transform="matrix(0.58, 0.72, -0.78, 0.62, 78.98, 342.9)">W</text><text class="cls-24" transform="matrix(0.7, 0.61, -0.66, 0.75, 104.7, 373.63)">E</text><text class="cls-24" transform="matrix(0.77, 0.51, -0.56, 0.83, 123.11, 389.41)">L</text><text class="cls-24" transform="matrix(0.83, 0.42, -0.45, 0.89, 140.66, 401.24)">C</text><text class="cls-24" transform="translate(163.95 412.94) rotate(18.11) scale(0.93 1)">O</text><text class="cls-24" transform="translate(192.91 422.23) rotate(8.42) scale(0.93 1)">M</text><text class="cls-24" transform="translate(224.02 426.38) rotate(-0.46) scale(0.93 1)">E</text><text class="cls-24" transform="matrix(0.92, -0.1, 0.1, 0.99, 247.75, 425.81)">,</text><text class="cls-24" transform="translate(258.03 424.71) rotate(-9.22) scale(0.93 1)"> </text><text class="cls-24" transform="matrix(0.89, -0.25, 0.27, 0.96, 269.06, 423.38)">M</text><text class="cls-24" transform="matrix(0.84, -0.4, 0.43, 0.9, 299.37, 414.44)">A</text><text class="cls-24" transform="matrix(0.77, -0.52, 0.56, 0.83, 325.35, 401.81)">K</text><text class="cls-24" transform="translate(347.21 386.73) rotate(-42.13) scale(0.93 1)">E</text><text class="cls-24" transform="matrix(0.59, -0.71, 0.77, 0.64, 365.33, 370.22)">R</text><text class="cls-24" transform="translate(381.33 350.25) rotate(-56.27) scale(0.93 1)">.</text><text class="cls-24" transform="matrix(0.47, -0.8, 0.86, 0.5, 387.08, 341.58)"> </text></svg>